<?xml version="1.0" encoding="UTF-8" standalone="no"?>
<svg width="60px" height="30px" viewBox="0 0 60 30" version="1.1" xmlns="http://www.w3.org/2000/svg" xmlns:xlink="http://www.w3.org/1999/xlink" xmlns:sketch="http://www.bohemiancoding.com/sketch/ns">
    <!-- Generator: Sketch 3.2.2 (9983) - http://www.bohemiancoding.com/sketch -->
    <title>Imported Layers</title>
    <desc>Created with Sketch.</desc>
    <defs></defs>
    <g id="FINAL" stroke="none" stroke-width="1" fill="none" fill-rule="evenodd" sketch:type="MSPage">
        <g id="Home" sketch:type="MSArtboardGroup" transform="translate(-294.000000, -3452.000000)" fill="#FFFFFF">
            <g id="Footer" sketch:type="MSLayerGroup" transform="translate(-7.000000, 3417.000000)">
                <g id="Made-in-Orange-Count-+-Imported-Layers" transform="translate(167.000000, 35.000000)" sketch:type="MSShapeGroup">
                    <g id="Imported-Layers" transform="translate(134.000000, 0.000000)">
                        <path d="M5.76882068,4.83977419 L8.33360258,2.99080645 L5.15156704,2.99080645 L4.16801292,0 L3.1844588,2.99080645 L0.00242326333,2.99080645 L2.56720517,4.83977419 L1.59344103,7.8386129 L1.65295638,7.79806452 L4.16801292,5.98974194 L6.74180937,7.83870968 L5.76882068,4.83977419" id="Fill-1"></path>
                        <path d="M59.9020032,28.8991935 C59.8941519,28.8036774 59.8760258,28.7742581 59.8141842,28.752 C59.7201616,28.7060323 59.6167367,28.6735161 59.5294023,28.6225161 C59.4852989,28.5990968 59.3710178,28.5547742 59.356769,28.5547742 C59.3210016,28.5229355 59.2948304,28.4867419 59.250727,28.4635161 C59.2310501,28.4449355 59.1924717,28.4245161 59.1537964,28.4134839 C59.0763489,28.3486452 59.0059774,28.2773226 58.9235864,28.2191613 C58.8839418,28.182871 58.8596123,28.1706774 58.8145396,28.169129 C58.7193538,28.1658387 58.6260097,28.1456129 58.6085622,28.1249032 C58.5957674,28.1097097 58.5821002,28.1085484 58.5600969,28.1131935 C58.5368336,28.118129 58.5268498,28.1126129 58.5026171,28.0895806 C58.4751858,28.0458387 58.4492084,27.974129 58.39958,27.966 C58.3806785,27.9710323 58.3707916,27.9671613 58.3541195,27.9423871 C58.3316317,27.8898387 58.3197092,27.836129 58.2724071,27.7951935 C58.226462,27.7674194 58.1837157,27.7254194 58.1270113,27.7127419 C58.1229402,27.699871 58.0588691,27.6837097 58.0118578,27.6833226 C57.9820032,27.683129 57.9726979,27.6761613 57.9452666,27.6332903 C57.927916,27.6061935 57.9091115,27.5586774 57.902811,27.5273226 C57.8869144,27.4469032 57.86937,27.4151613 57.8301131,27.3977419 C57.7853312,27.3781935 57.7728271,27.3363871 57.7120517,27.3624194 C57.6850081,27.3637742 57.5667528,27.4081935 57.5393215,27.4271613 C57.521874,27.4393548 57.4927948,27.4419677 57.4091438,27.4389677 C57.3500162,27.4368387 57.2968982,27.4365484 57.2909855,27.4360645 C57.2387399,27.3667742 57.1890145,27.2883871 57.1153473,27.2358387 C57.107496,27.2358387 57.0789984,27.2144516 57.051664,27.1887097 C57.0081422,27.1477742 56.9974798,27.1445806 56.9578352,27.1445806 C56.8949273,27.0892258 56.8467528,27.0483871 56.8275606,26.9649677 C56.8066236,26.9465806 56.6700485,26.943871 56.6700485,26.9620645 C56.6700485,26.9947742 56.5719548,27.009871 56.536769,26.9826774 C56.5268821,26.9749355 56.5120517,26.9548065 56.5034249,26.9355484 C56.4918901,26.9097097 56.4773506,26.8978065 56.4519548,26.8914194 C56.4330533,26.8865806 56.397189,26.8757419 56.3701454,26.8678065 C56.3063651,26.8490323 56.2545073,26.8546452 56.2157351,26.8855161 C56.1984814,26.8991613 56.1659128,26.9220968 56.1430372,26.9355484 C56.1247173,26.9575161 56.0969952,26.9722258 56.0884653,27.0002903 C56.0659774,27.0082258 56.0003554,26.9905161 55.9915347,26.973871 C55.9694346,26.9522903 55.9386107,26.9364194 55.9249435,26.9090323 C55.9249435,26.8904516 55.8902423,26.8947097 55.8401292,26.9208387 C55.7962197,26.9436774 55.7880775,26.9407742 55.7674313,26.8914194 C55.752504,26.8557097 55.7506624,26.8392581 55.7583199,26.8177742 C55.7808078,26.7550645 55.7621002,26.6598387 55.7249758,26.6499677 C55.6970598,26.6425161 55.6189338,26.6942903 55.6189338,26.7206129 C55.5469144,26.6749355 55.4924394,26.6062258 55.4796446,26.432129 C55.4723748,26.4146129 55.4615186,26.3920645 55.4584168,26.3820968 C55.4494023,26.352871 55.4164459,26.3625484 55.3797092,26.4027097 C55.3350242,26.4497419 55.2884976,26.4978387 55.258546,26.5558065 C55.2440065,26.5909355 55.222294,26.5998387 55.1918578,26.5852258 C55.1731502,26.576129 55.1702423,26.5619032 55.1646204,26.5145806 C55.1592892,26.4690968 55.1526979,26.4537097 55.134378,26.4409355 C55.1123748,26.4256452 55.1049111,26.4276774 55.0525687,26.4527419 C54.9975121,26.5444839 54.9274313,26.6822903 54.8041357,26.6175484 C54.7822294,26.5563871 54.802294,26.4485806 54.8465913,26.3820968 L54.8738288,26.337871 L54.8465913,26.2672258 C54.8125687,26.2231935 54.7977383,26.150129 54.7466559,26.1465484 C54.6955735,26.1429677 54.6277221,26.1923226 54.5982553,26.2407097 C54.5733441,26.2652903 54.570727,26.3210323 54.5224556,26.3143548 C54.5224556,26.3355484 54.4838772,26.3219032 54.4497577,26.2878387 C54.42979,26.2679032 54.4080775,26.2523226 54.4012924,26.2525161 C54.3728918,26.2532903 54.3108562,26.3100968 54.2922456,26.3525806 C54.2779968,26.3852903 54.2629725,26.3985484 54.2437803,26.4027097 C54.2168336,26.4240968 54.1850404,26.4402581 54.1620679,26.4674516 C54.1448142,26.4449032 54.1083683,26.4264194 54.1014863,26.3909032 C54.0769628,26.358 54.0719225,26.3052581 54.0923748,26.2878387 C54.1132149,26.270129 54.121454,26.2143871 54.1044911,26.1994839 C54.0777383,26.1503226 54.0751212,26.0935161 54.0075606,26.0759032 C53.9808078,26.0759032 53.9611309,26.0383548 53.9499838,25.9640323 C53.9449435,25.9304516 53.9465913,25.9078065 53.9621002,25.8727742 C53.9421325,25.7809355 53.9314701,25.7009032 53.840937,25.6490323 C53.8237803,25.6490323 53.7833603,25.7113548 53.7652342,25.7667097 C53.7386753,25.7911935 53.7242326,25.8289355 53.6834249,25.8432581 C53.6377706,25.8916452 53.5941519,25.8660968 53.5592569,25.7726129 C53.5320194,25.6998387 53.5122456,25.6729355 53.4774475,25.6637419 C53.4497254,25.6563871 53.4277221,25.6700323 53.4077544,25.7107742 C53.3970921,25.7328387 53.3973829,25.7583871 53.4047496,25.8403548 C53.4098869,25.8969677 53.4114378,25.9587097 53.4077544,25.9757419 C53.3959289,26.0667097 53.394475,26.1659032 53.3411632,26.2437097 C53.3076252,26.2698387 53.2175767,26.2055806 53.2169952,26.1553548 C53.2168013,26.1392903 53.2055574,26.1221613 53.1836511,26.1053226 C53.1380937,26.0441613 53.1054281,25.9900645 53.0231341,25.9757419 C52.9714701,25.9676129 52.9360905,25.9454516 52.9200969,25.914 C52.9061389,25.8863226 52.9023586,25.806871 52.9140872,25.799129 C52.9291115,25.7544194 52.9515994,25.712129 52.935315,25.6666452 C52.9270759,25.6443871 52.9110824,25.6217419 52.9019709,25.6166129 C52.8541842,25.6434194 52.7968982,25.6634516 52.75958,25.7225806 C52.7057835,25.7539355 52.671664,25.7844194 52.599063,25.7726129 L52.5549596,25.7726129 C52.5535057,25.7278065 52.5594184,25.6786452 52.5701777,25.6709032 C52.5769628,25.6659677 52.5854927,25.6389677 52.5890792,25.6109032 C52.5926656,25.5828387 52.6049758,25.5453871 52.6165105,25.5276774 C52.633958,25.5007742 52.6361874,25.4877097 52.6303716,25.4488065 C52.6166074,25.3578387 52.6039095,25.2217742 52.6009047,25.1333226 C52.5992569,25.0840645 52.59063,24.9961935 52.5817124,24.9379355 C52.5728918,24.8797742 52.568336,24.8280968 52.5717286,24.8231613 C52.5621325,24.7937419 52.5421648,24.7631613 52.5410016,24.7288065 C52.5347981,24.6794516 52.5363489,24.672 52.5549596,24.6573871 C52.5664943,24.6484839 52.5758966,24.6384194 52.5758966,24.6352258 C52.5758966,24.6319355 52.5595153,24.6076452 52.5395477,24.5812258 C52.5089176,24.5407742 52.5024233,24.5235484 52.4974798,24.4705161 C52.494378,24.4359677 52.4889499,24.4037419 52.4855574,24.3988065 C52.4820679,24.393871 52.4765428,24.3676452 52.4731502,24.3405484 C52.4631664,24.2715484 52.470727,24.1978065 52.4063651,24.1616129 C52.4025848,24.1615161 52.3762197,24.1193226 52.3478191,24.0679355 C52.3193215,24.0165484 52.2836511,23.9615806 52.2685299,23.9458065 C52.2411955,23.9173548 52.2370275,23.8996452 52.2407108,23.8275484 C52.2419709,23.802871 52.2356704,23.7865161 52.2170598,23.7663871 C52.1903069,23.7241935 52.1606462,23.6822903 52.1523102,23.6336129 C52.1523102,23.6023548 52.1475606,23.5896774 52.133021,23.5814516 C52.1165428,23.5545484 52.0961874,23.5269677 52.0822294,23.4984194 C52.0693376,23.4984194 52.0262036,23.4556452 52.0194184,23.436 C51.9885945,23.411129 51.957189,23.3859677 51.9244265,23.3649677 C51.8899192,23.354129 51.8457189,23.2706129 51.845622,23.2162258 C51.845525,23.1746129 51.8121809,23.0908065 51.784168,23.0617742 C51.7735057,23.0507419 51.7411309,23.0268387 51.7122456,23.0087419 C51.6833603,22.9906452 51.6597092,22.9694516 51.6597092,22.9617097 C51.6357674,22.9087742 51.6147334,22.8527419 51.5710178,22.8144194 C51.5630695,22.7914839 51.5476575,22.7693226 51.5468821,22.7452258 C51.558126,22.7286774 51.5301131,22.6657742 51.5019063,22.6440968 C51.4865913,22.611871 51.4499515,22.5873871 51.4538288,22.5427742 C51.4435541,22.5134516 51.4373506,22.479 51.4400646,22.466129 C51.4468498,22.4341935 51.4253312,22.3783548 51.3972213,22.3544516 C51.3937318,22.3257097 51.3722132,22.2994839 51.3867528,22.2692903 C51.3776414,22.2587419 51.3705654,22.2199355 51.3581583,22.1109677 C51.3556381,22.0893871 51.3493376,22.0644194 51.3441034,22.0555161 C51.334895,22.0119677 51.3489499,21.9708387 51.3149273,21.9364839 C51.2961228,21.8784194 51.2629725,21.8113548 51.2537641,21.7602581 C51.2758643,21.7279355 51.262294,21.6904839 51.2237157,21.6773226 C51.1831018,21.6634839 51.1754443,21.5908065 51.2118901,21.5647742 C51.2322456,21.5501613 51.2356381,21.5422258 51.2299192,21.5215161 C51.2261389,21.5075806 51.2144103,21.4855161 51.2038449,21.4725484 C51.1932795,21.4594839 51.1823263,21.4301613 51.1795153,21.4073226 C51.1767044,21.3845806 51.1705977,21.3637742 51.1658481,21.3611613 C51.143748,21.3187742 51.1403554,21.2740645 51.0984814,21.2416452 C51.0832633,21.2081613 51.0937318,21.1930645 51.1434572,21.1767097 C51.1619709,21.1706129 51.1769952,21.1625806 51.1769952,21.1588065 C51.1769952,21.1550323 51.1614863,21.1262903 51.1424879,21.0949355 C51.1281422,21.0586452 51.1112763,21.0174194 51.0919871,20.9863548 C51.0928595,20.9520968 51.1058481,20.877 51.0827787,20.8407097 C51.066979,20.7550645 51.0699838,20.6729032 51.0640711,20.5843548 C51.0648465,20.5034516 51.0578675,20.4198387 51.0442003,20.3370968 C51.0435218,20.2996452 51.0371244,20.2532903 51.0300485,20.2343226 C51.0263651,20.1866129 51.0286914,20.1382258 51.0016478,20.0998065 C50.9920517,20.0380645 50.981874,19.974871 50.9758643,19.9133226 C50.9653958,19.8334839 50.987496,19.7695161 50.9509532,19.6933548 C50.9391276,19.6530968 50.9476575,19.6256129 50.9781906,19.6050968 C50.9938934,19.5945484 50.9890468,19.535129 50.9700485,19.5048387 C50.9226494,19.3913226 50.9295315,19.2969677 50.9450404,19.1715484 C50.9470759,19.0427419 50.945525,19.0296774 50.9247819,18.9923226 C50.9195477,18.9206129 50.9355412,18.8513226 50.9151858,18.7856129 C50.8809693,18.7220323 50.8373506,18.6604839 50.8175767,18.5912903 C50.8091438,18.531871 50.7917932,18.4732258 50.7808401,18.4670323 C50.7551535,18.4526129 50.7357674,18.3849677 50.7409047,18.3272903 C50.7298546,18.273871 50.7257835,18.2193871 50.7140549,18.1649032 C50.7036834,18.0857419 50.6873021,18.0090968 50.6697577,17.9310968 C50.6492084,17.8714839 50.6375767,17.8083871 50.5959935,17.7563226 C50.600937,17.711129 50.5691438,17.6739677 50.6170275,17.6268387 C50.6054927,17.5640323 50.6029725,17.4972581 50.5921163,17.439871 C50.5737964,17.4274839 50.4874313,17.2925806 50.4874313,17.2763226 C50.4627141,17.2394516 50.4470113,17.2042258 50.4185137,17.1692903 C50.4036834,17.1380323 50.4004847,17.1150968 50.4039742,17.0669032 C50.4079483,17.0132903 50.4052342,16.9994516 50.3847819,16.9660645 C50.3279806,16.8586452 50.3198384,16.7550968 50.2768013,16.6416774 C50.2629402,16.5963871 50.24937,16.5584516 50.2355089,16.5130645 C50.2104039,16.4483226 50.2059451,16.4164839 50.2209693,16.4080645 C50.2149596,16.3657742 50.2288207,16.3157419 50.1918901,16.2805161 C50.1731826,16.2270968 50.1482714,16.1769677 50.1435218,16.1185161 C50.1233603,16.0690645 50.1031018,16.0192258 50.0737318,15.9745161 C50.0737318,15.9693871 50.0628756,15.9507097 50.0496931,15.933 C50.0171244,15.8893548 49.9971567,15.8087419 50.0143134,15.7899677 C50.0380614,15.7722581 50.0747981,15.7745806 50.0838126,15.7381935 C50.1503069,15.6699677 50.1956704,15.6071613 50.2209693,15.5371935 C50.2463651,15.4673226 50.2515994,15.3902903 50.238126,15.2938065 C50.2390953,15.2437742 50.1845234,15.2302258 50.2475283,15.1739032 C50.2523748,15.1468065 50.2488853,15.1359677 50.2276575,15.1130323 C50.1947011,15.0500323 50.1563166,14.9867419 50.1261712,14.9207419 C50.1120194,14.8960645 50.0946688,14.8558065 50.0875929,14.831129 C50.0806139,14.8064516 50.0663651,14.756129 50.0558966,14.7191613 C50.045525,14.6821935 50.0230372,14.6257742 50.0060743,14.5937419 C49.9891115,14.5617097 49.9752504,14.5262903 49.9751535,14.5151613 C49.9421002,14.4765484 49.9028433,14.4350323 49.8672698,14.3950645 C49.8477868,14.3652581 49.823748,14.3441613 49.8088207,14.3052581 C49.7875929,14.2678065 49.7615186,14.2301613 49.7408724,14.1929032 C49.6977383,14.102129 49.7071405,14.0038065 49.6298869,13.9379032 C49.5797738,13.8817742 49.5369305,13.8224516 49.4703393,13.7848065 C49.4563813,13.7357419 49.4464943,13.6715806 49.4031664,13.6392581 C49.3822294,13.6228065 49.3634249,13.6019032 49.3410339,13.5903871 C49.3259128,13.5903871 49.2855897,13.5348387 49.2855897,13.5139355 C49.2534087,13.4847097 49.2323748,13.4473548 49.1925363,13.4313871 C49.1893376,13.4227742 49.1685945,13.4080645 49.1464943,13.398871 C49.0924071,13.3027742 49.0031341,13.2509032 48.9604847,13.1649677 C48.9300485,13.1194839 48.9077544,13.0629677 48.8541519,13.0370323 C48.8335057,13.0264839 48.8098546,13.0106129 48.8015186,13.0018065 C48.7480129,12.900871 48.7331826,12.7974194 48.6159935,12.7609355 C48.5647173,12.7171935 48.5118901,12.6890323 48.4970598,12.6174194 C48.4584814,12.5756129 48.4582876,12.5360323 48.3890792,12.5286774 C48.382294,12.5212258 48.3551535,12.5062258 48.3287884,12.4951935 C48.2936995,12.4122581 48.2365105,12.2925484 48.1441357,12.2290645 C48.1383199,12.2114516 48.1224233,12.1832903 48.1086591,12.1663548 C48.0888853,12.1364516 48.0780291,12.1032581 48.0509855,12.0794516 C48.0007754,12.0247742 47.9495961,11.9713548 47.8987076,11.915129 C47.814475,11.8736129 47.7854927,11.8493226 47.7639742,11.8025806 C47.727916,11.7773226 47.6950565,11.7376452 47.6442649,11.7281613 C47.6059774,11.7165484 47.5898869,11.7050323 47.5655574,11.6720323 C47.5487884,11.6491935 47.5323102,11.6155161 47.5291115,11.5973226 C47.5000323,11.5577419 47.4722132,11.5121613 47.4421648,11.4716129 C47.4129887,11.450129 47.3907916,11.4067742 47.3422294,11.4045484 C47.3297254,11.4045484 47.2999677,11.3954516 47.2761228,11.3843226 C47.1922779,11.2796129 47.0691761,11.2145806 47.0297254,11.0865484 L46.9727302,11.0351613 C46.8689176,11.0035161 46.7778029,10.9602581 46.7145073,10.8685161 C46.7145073,10.8569032 46.6665267,10.8370645 46.6168013,10.8281613 C46.5758966,10.8208065 46.5200646,10.7835484 46.5050404,10.7535484 C46.4242003,10.7141613 46.3435541,10.6624839 46.2570921,10.625129 C46.2449758,10.625129 46.2249111,10.6151613 46.2123102,10.6029677 C46.1684976,10.5626129 46.2386753,10.5085161 46.1152827,10.5134516 C46.0176737,10.4962258 45.9921809,10.4731935 45.9658158,10.4471613 C45.8515347,10.3619032 45.7345396,10.3397419 45.6145396,10.2721935 C45.5926333,10.2485806 45.5685945,10.2367742 45.5046204,10.2184839 C45.4596446,10.2056129 45.4129241,10.1951613 45.4009047,10.1951613 C45.3881099,10.1951613 45.3575767,10.1765806 45.3273344,10.1503548 C45.2606462,10.1096129 45.2089822,10.062 45.1257189,10.0600645 C45.0836511,10.0572581 45.0444911,10.0506774 45.0387722,10.0454516 C45.0329564,10.0402258 45.0270436,10.0224194 45.0255897,10.0057742 C45.0241357,9.98922581 45.022294,9.96890323 45.0214216,9.96058065 C45.0189015,9.93270968 44.991567,9.91712903 44.9528918,9.92158065 C44.9013247,9.92651613 44.8498546,9.93183871 44.7982876,9.93570968 L44.7554443,9.88219355 C44.7211309,9.83941935 44.7073667,9.82887097 44.6865267,9.82935484 C44.6313732,9.83070968 44.5219386,9.816 44.5077868,9.80525806 C44.4996446,9.79906452 44.4784168,9.79112903 44.4603877,9.78764516 C44.4221002,9.75677419 44.3906947,9.72445161 44.3422294,9.71709677 C44.2607108,9.68322581 44.1875283,9.63996774 44.105525,9.60387097 C44.0450404,9.58606452 43.9819386,9.56787097 43.9187399,9.55906452 C43.8915994,9.54435484 43.8491438,9.54764516 43.8315024,9.51164516 C43.7813893,9.50032258 43.7412601,9.50051613 43.6914378,9.47419355 C43.6661389,9.47032258 43.6399677,9.45658065 43.6131179,9.43306452 C43.5483683,9.42329032 43.5037803,9.40732258 43.4502746,9.39541935 C43.4042326,9.40016129 43.3650727,9.387 43.3650727,9.36677419 C43.3147658,9.333 43.2633926,9.27745161 43.1968982,9.27241935 C43.1671405,9.27241935 43.1340872,9.26545161 43.1115024,9.25451613 C43.0572213,9.22809677 43.0179645,9.21125806 42.9605816,9.21851613 C42.8879806,9.20196774 42.8179968,9.17254839 42.7448142,9.17148387 C42.6493376,9.16625806 42.5699515,9.17264516 42.4724394,9.14206452 C42.43958,9.10625806 42.4026494,9.10132258 42.3749273,9.12919355 C42.3523425,9.15193548 42.3034895,9.14612903 42.2489176,9.11419355 C42.2164459,9.09522581 42.205105,9.09319355 42.1651696,9.09929032 C42.1397738,9.10316129 42.1056543,9.10548387 42.08937,9.10451613 C41.9779968,9.09783871 41.9474637,9.09387097 41.9161551,9.08196774 C41.7568982,9.06019355 41.6141195,8.98722581 41.4570921,8.99380645 C41.4101777,8.97716129 41.3730533,8.99070968 41.3361228,8.9463871 C41.3008401,8.93109677 41.2913409,8.93051613 41.2382229,8.94077419 C41.2058481,8.94696774 41.1644588,8.94958065 41.146042,8.9463871 C41.1278191,8.94329032 41.0997092,8.94493548 41.0837157,8.94996774 C41.0368013,8.96487097 40.7701454,8.94841935 40.7468821,8.92925806 C40.6773829,8.92180645 40.6389984,8.91832258 40.5575767,8.93196774 C40.4933118,8.94387097 40.4078191,8.95112903 40.3020679,8.95354839 C40.2147334,8.95548387 40.1377706,8.961 40.1311793,8.96574194 C40.107916,8.98229032 39.8848788,8.99729032 39.8261389,8.98625806 C39.7764136,8.97677419 39.7650727,8.97812903 39.6787076,9.00329032 C39.5739257,9.03377419 39.5393215,9.03619355 39.4710824,9.01732258 C39.3869467,9.01993548 39.2991276,9.01654839 39.2128595,9.03135484 C39.1262036,9.03570968 39.0227787,9.04577419 38.9830372,9.0536129 C38.9502746,9.05854839 38.9152827,9.05864516 38.8853312,9.06822581 C38.866042,9.08274194 38.775315,9.11119355 38.7481745,9.11119355 C38.7359612,9.11119355 38.6871082,9.12890323 38.6394184,9.15058065 L38.4636834,9.18522581 C38.3911793,9.18145161 38.3683037,9.18348387 38.341454,9.19606452 C38.2864943,9.20603226 38.2298869,9.21483871 38.175315,9.22490323 C38.1662036,9.23806452 37.928433,9.29167742 37.8435218,9.29970968 C37.805622,9.30329032 37.7568659,9.31093548 37.7352504,9.31674194 C37.6676898,9.32603226 37.5983845,9.33125806 37.5332472,9.35196774 C37.4487237,9.37470968 37.366042,9.38187097 37.2835541,9.40287097 C37.1833279,9.44129032 37.0977383,9.42677419 36.9968336,9.45280645 C36.9462359,9.46770968 36.8974798,9.48609677 36.844168,9.4863871 C36.8072375,9.48648387 36.7473344,9.49277419 36.7111793,9.50041935 C36.6750242,9.50806452 36.6275283,9.51425806 36.605622,9.51425806 C36.548433,9.53545161 36.4873667,9.56051613 36.4263974,9.56816129 C36.3227787,9.56680645 36.2463005,9.57687097 36.1848465,9.5996129 C36.1382229,9.60948387 36.0910178,9.6206129 36.0457512,9.63329032 C35.9924394,9.64664516 35.9392246,9.66396774 35.8850404,9.67519355 C35.8697254,9.6753871 35.8483037,9.67993548 35.8372536,9.68525806 C35.8225202,9.69241935 35.7815186,9.69096774 35.6801292,9.67954839 C35.5695315,9.66716129 35.5323102,9.66609677 35.4873344,9.67432258 C35.4074637,9.68264516 35.3272052,9.68883871 35.2478191,9.7023871 C35.1752181,9.71545161 35.1427464,9.71777419 35.1288853,9.711 C35.0398061,9.70112903 34.9504362,9.69329032 34.8604847,9.71525806 C34.752504,9.73809677 34.7467851,9.73848387 34.7015186,9.72445161 C34.5436187,9.723 34.3878514,9.70654839 34.2310178,9.69851613 C34.2072698,9.68941935 34.1639418,9.68448387 34.1078191,9.6843871 C34.0373506,9.67712903 33.9803554,9.67151613 33.9197738,9.6296129 C33.8791599,9.61151613 33.8751858,9.61132258 33.8262359,9.62487097 C33.7980291,9.63270968 33.7531502,9.64025806 33.7263974,9.6416129 C33.6830695,9.64393548 33.6762843,9.64170968 33.6652342,9.62206452 C33.5939903,9.60116129 33.5078191,9.56922581 33.4223263,9.56293548 C33.3200646,9.54135484 33.233021,9.50409677 33.1272698,9.47390323 C33.0632956,9.42909677 33.0294669,9.36919355 32.9513409,9.36116129 C32.884168,9.35129032 32.8514055,9.32690323 32.8603231,9.29341935 C32.8668174,9.26912903 32.8349273,9.25770968 32.8035218,9.273 C32.7631018,9.29264516 32.6363166,9.26874194 32.6526979,9.24454839 C32.6426171,9.21948387 32.5695315,9.20341935 32.6202262,9.16451613 C32.631664,9.15493548 32.6440711,9.147 32.6479483,9.147 C32.6682068,9.147 32.6631664,9.11777419 32.6395153,9.09783871 C32.6057835,9.0693871 32.5899838,9.0693871 32.5822294,9.09774194 C32.5655574,9.09551613 32.5276575,9.12929032 32.5125363,9.08864516 C32.4485622,9.06522581 32.3763489,9.04683871 32.3418417,8.98132258 C32.2752504,8.94967742 32.201874,8.90535484 32.1200646,8.89983871 C32.084588,8.89635484 32.0560905,8.88841935 32.0486268,8.87990323 C32.0458158,8.84119355 32.0727625,8.8563871 32.0437803,8.81293548 C32.0145073,8.77509677 32.0062682,8.77035484 31.9858158,8.78032258 C31.9513086,8.79706452 31.8988691,8.79 31.8733764,8.76503226 C31.851664,8.74364516 31.8443942,8.74190323 31.8000969,8.74664516 C31.7227464,8.75496774 31.6964782,8.7423871 31.6857189,8.69196774 L31.6296931,8.64706452 C31.5965428,8.64512903 31.5637803,8.65112903 31.5190953,8.6673871 C31.4780937,8.68229032 31.4466882,8.68848387 31.4306947,8.68490323 C31.4292407,8.66409677 31.4078191,8.63874194 31.4242973,8.5946129 C31.4262359,8.56074194 31.4237157,8.5556129 31.4025848,8.55077419 C31.2938288,8.56122581 31.1938934,8.52745161 31.0837803,8.53664516 C31.0163166,8.51951613 30.9834572,8.53906452 30.9832633,8.46309677 C30.9862682,8.40406452 30.9798708,8.39448387 30.9374152,8.39448387 C30.8899192,8.40716129 30.891567,8.45506452 30.8248788,8.41867742 C30.785622,8.3913871 30.7441357,8.38170968 30.7182553,8.3366129 L30.683748,8.35151613 C30.6392569,8.37077419 30.5423263,8.364 30.5168336,8.33980645 C30.5073344,8.33090323 30.4812601,8.31851613 30.4589661,8.31241935 C30.3959612,8.31996774 30.3333441,8.31222581 30.2756704,8.33148387 C30.241357,8.349 30.2313732,8.35045161 30.2026817,8.34174194 C30.1436511,8.31512903 30.135412,8.27254839 30.0537964,8.29887097 C30.0054281,8.2826129 29.9677221,8.28058065 29.9147011,8.26006452 C29.8526656,8.27767742 29.8783522,8.29925806 29.8118578,8.28919355 C29.7549596,8.31870968 29.7318901,8.3613871 29.6582229,8.33564516 C29.5533441,8.31203226 29.4506947,8.31067742 29.345525,8.29819355 C29.2508239,8.29412903 29.157189,8.34677419 29.0764459,8.304 C29.0510501,8.28367742 29.0415509,8.26887097 29.0415509,8.24922581 C29.0415509,8.22435484 29.0395153,8.22280645 29.0145073,8.22851613 C28.99958,8.23190323 28.9838772,8.24041935 28.9795153,8.24748387 C28.9544103,8.27012903 28.931147,8.29587097 28.9033279,8.31609677 C28.8517609,8.36225806 28.8249111,8.3583871 28.8249111,8.30467742 C28.8184168,8.30535484 28.7606462,8.28687097 28.7247819,8.31483871 C28.6739903,8.34 28.5677544,8.34870968 28.5227787,8.33148387 C28.4940872,8.32045161 28.4884653,8.32132258 28.4534733,8.34241935 C28.3878514,8.36748387 28.3194184,8.40996774 28.2529241,8.41490323 C28.2145396,8.40174194 28.1749919,8.41093548 28.1624879,8.436 C28.1520194,8.45680645 28.1352504,8.46309677 28.1220679,8.45119355 C28.1131502,8.44296774 28.0002262,8.44770968 27.9722132,8.4573871 C27.9439095,8.47567742 27.9438126,8.51932258 27.8988368,8.50480645 C27.8227464,8.502 27.786979,8.49503226 27.7756381,8.48090323 C27.704685,8.49232258 27.6380937,8.49870968 27.5792569,8.5443871 C27.5542488,8.56335484 27.5436834,8.56577419 27.5045234,8.56103226 C27.464588,8.55619355 27.453441,8.55890323 27.4153473,8.58241935 C27.3672698,8.61232258 27.3184168,8.62693548 27.2509532,8.63196774 C27.2263328,8.63380645 27.2029725,8.64009677 27.1989984,8.64590323 C27.1905654,8.6583871 27.1066236,8.68674194 27.0369305,8.70058065 C27.0098869,8.706 26.9740226,8.71993548 26.9572536,8.73164516 C26.9168336,8.75970968 26.8755412,8.78806452 26.832601,8.81012903 C26.7792892,8.82977419 26.7246204,8.85280645 26.6691761,8.86325806 C26.6039418,8.89025806 26.5343457,8.913 26.4839418,8.97048387 C26.4630048,8.98267742 26.4258805,9.01258065 26.4015509,9.03696774 C26.2420032,9.11003226 26.0968013,9.18570968 25.9504362,9.30454839 C25.9249435,9.34006452 25.8904362,9.35496774 25.8402262,9.35235484 C25.7863328,9.34954839 25.7831341,9.351 25.7710178,9.3843871 C25.7632633,9.40577419 25.7536672,9.41574194 25.7407754,9.41574194 C25.7303069,9.41574194 25.7217771,9.41941935 25.7217771,9.42387097 C25.7217771,9.44293548 25.6676898,9.50535484 25.6511147,9.50535484 C25.6400646,9.50535484 25.6330856,9.51183871 25.6330856,9.52209677 C25.6330856,9.5313871 25.6264943,9.54396774 25.6183522,9.55016129 C25.61021,9.55625806 25.6036187,9.56622581 25.6036187,9.57222581 C25.6036187,9.59874194 25.5232633,9.64867742 25.480517,9.64867742 C25.4737318,9.64867742 25.4494023,9.66425806 25.4264297,9.68332258 C25.385622,9.71729032 25.3829079,9.71806452 25.2945073,9.72232258 C25.2385784,9.7316129 25.1957351,9.74187097 25.1625848,9.76412903 C25.1294346,9.78629032 25.1339903,9.7916129 25.1209047,9.81754839 C25.1078191,9.8433871 25.0768982,9.93019355 25.018643,9.92729032 C25.0009047,9.91383871 24.9073667,9.95845161 24.9003877,9.98351613 C24.8931179,10.0100323 24.821874,10.0391613 24.7929887,10.0274516 C24.764685,10.0160323 24.7207754,10.0368387 24.7129241,10.0653871 C24.708853,10.0800968 24.6998384,10.0876452 24.6863651,10.0876452 C24.6747334,10.0876452 24.6637803,10.0948065 24.6611632,10.1041935 C24.6573829,10.1172581 24.6375121,10.1238387 24.566462,10.1354516 C24.5099515,10.1446452 24.4734087,10.1550968 24.4681745,10.1636129 C24.387916,10.2316452 24.3089176,10.3070323 24.2169305,10.3621935 C24.2025848,10.3654839 24.1634249,10.3816452 24.1299838,10.3980968 C24.0559289,10.4254839 23.966462,10.4491935 23.9091761,10.4980645 C23.9091761,10.5074516 23.8997738,10.5260323 23.888336,10.5392903 C23.8698223,10.5606774 23.8611955,10.5632903 23.8119548,10.5623226 C23.7381906,10.560871 23.6603554,10.5709355 23.6480452,10.5836129 C23.6283683,10.6036452 23.5747658,10.634129 23.5589661,10.634129 C23.5501454,10.634129 23.5405493,10.626 23.5377383,10.616129 C23.5251373,10.5723871 23.425105,10.6145806 23.4118255,10.6692581 C23.4074637,10.6873548 23.398643,10.6965484 23.3840065,10.6984839 C23.3700485,10.7003226 23.3613247,10.7087419 23.3591922,10.7224839 C23.3560905,10.7424194 23.352601,10.7434839 23.3021002,10.7396129 L23.2483037,10.7355484 L23.2083683,10.7789032 C23.1773506,10.8125806 23.1621325,10.8222581 23.1395477,10.8222581 C23.1236511,10.8222581 23.108336,10.8166452 23.1054281,10.809871 C23.0999031,10.8118065 23.0541519,10.797871 23.0522132,10.8286452 C23.0304039,10.8522581 23.0086914,10.8747097 22.986979,10.8993871 C22.9532472,10.9215484 22.9364782,10.9363548 22.9323102,10.9472903 C22.91021,10.9359677 22.8528271,10.9460323 22.846042,10.902871 C22.8262682,10.9231935 22.7880775,10.9332581 22.7786753,10.9721613 C22.7465913,11.0093226 22.7160582,11.051129 22.6751535,11.0783226 C22.6502423,11.0854839 22.5855897,11.0850968 22.5594184,11.0775484 C22.5231664,11.1005806 22.4715024,11.1340645 22.4252666,11.1526452 C22.325525,11.2363548 22.2178352,11.2506774 22.0992892,11.3058387 C22.0209693,11.3582903 21.933441,11.4006774 21.8666559,11.4682258 C21.8639418,11.4763548 21.8424233,11.4870968 21.8172213,11.4929032 C21.7661389,11.5046129 21.7515024,11.5189355 21.7749596,11.5345161 C21.8061712,11.5553226 21.7910501,11.5643226 21.7148627,11.5700323 C21.6728918,11.5732258 21.6318901,11.5766129 21.623748,11.5775806 C21.6156058,11.5785484 21.6046527,11.588129 21.5995153,11.598871 C21.5188691,11.6697097 21.4359935,11.7373548 21.353021,11.8044194 C21.3447819,11.8072258 21.3380937,11.8145806 21.3380937,11.8206774 C21.3380937,11.8449677 21.2999031,11.8635484 21.24979,11.8635484 C21.1948304,11.8879355 21.1337641,11.8964516 21.0979968,11.9590645 C21.111664,12.0181935 21.1114701,12.0322258 21.0967367,12.0373548 C21.0537964,12.0415161 21.0161874,12.0073548 20.9703393,12.0542903 C20.9123748,12.0756774 20.9019063,12.0914516 20.9408724,12.0991935 C20.9178998,12.1231935 20.9078191,12.1315161 20.8830048,12.1595806 C20.8512116,12.2094194 20.8243619,12.237 20.7765751,12.2690323 C20.7568982,12.3002903 20.7499192,12.3397742 20.7198708,12.3593226 C20.6645234,12.3705484 20.6083037,12.3930968 20.5835864,12.4139032 C20.5275606,12.461129 20.4240388,12.4809677 20.3760582,12.4537742 C20.3487237,12.4381935 20.3430048,12.4275484 20.3276898,12.363 C20.3143134,12.3067742 20.3055897,12.2879032 20.28979,12.2812258 C20.2467528,12.242129 20.204588,12.2424194 20.2044911,12.1726452 L20.1591276,12.1782581 C20.1109532,12.1377097 20.0448465,12.0901935 19.9678837,12.0585484 C19.9578998,12.0585484 19.9344426,12.0462581 19.9157351,12.0313548 C19.8355735,12.0232258 19.7523102,11.9937097 19.6822294,12.0005806 C19.6286268,12.0456774 19.5762843,12.0926129 19.50979,12.1186452 C19.4207108,12.1603548 19.3812601,12.2067097 19.3136026,12.2605161 C19.3080775,12.2700968 19.2891761,12.2919677 19.2716317,12.3090968 C19.241874,12.3702581 19.2034895,12.4232903 19.1670436,12.4815484 C19.1410662,12.5131935 19.1089822,12.5376774 19.0957027,12.5825806 C19.0770921,12.6273871 19.0557674,12.6721935 19.0427787,12.7185484 C19.0209693,12.7562903 18.98937,12.7930645 18.99063,12.8388387 C18.9925687,12.8784194 18.990727,12.8818065 18.9634895,12.8904194 C18.9486591,12.9040645 18.9262682,12.9079355 18.9190953,12.9311613 C18.8866236,12.9618387 18.8602585,13.0133226 18.7962843,13.0308387 C18.766042,13.032 18.6937318,13.0289032 18.6457512,13.0465161 C18.6006785,13.059871 18.5536672,13.0708065 18.5412601,13.0708065 C18.4990953,13.094129 18.4639095,13.1256774 18.4121486,13.1149355 C18.3147334,13.0858065 18.2635541,13.0573548 18.1537318,12.9934839 C18.1038126,12.9451935 18.0482714,12.8922581 17.9828433,12.851129 C17.933021,12.8243226 17.8778675,12.7985806 17.8272698,12.7774839 C17.8206785,12.7601613 17.7821002,12.708 17.7575767,12.683129 C17.6955412,12.6730645 17.6173183,12.6433548 17.5622617,12.6418065 C17.5072052,12.6403548 17.4575767,12.6691935 17.4178352,12.6937742 C17.3868174,12.722129 17.3506624,12.7434194 17.3251696,12.7784516 C17.2747658,12.8649677 17.1991599,12.9352258 17.1513732,13.0059677 C17.1361551,13.0416774 17.1226817,13.077 17.1042649,13.1093226 C17.0887561,13.1246129 17.0826494,13.1471613 17.0770275,13.2092903 C17.0725687,13.2593226 17.0645234,13.2943548 17.0557997,13.3023871 C17.0318578,13.3610323 17.0105331,13.4171613 16.9938611,13.4741613 C16.9832956,13.5279677 16.9699192,13.5862258 16.97021,13.6567742 C16.96042,13.6734194 16.9509208,13.7005161 16.9490792,13.7170645 C16.9472375,13.7336129 16.9426817,13.7682581 16.9389015,13.7940968 C16.9336672,13.8304839 16.9357997,13.8460645 16.9485945,13.8637742 C16.9757351,13.9523226 17.0069467,14.0424194 16.9907593,14.1360968 C16.9617771,14.1643548 16.9306624,14.199 16.9028433,14.2255161 C16.8383845,14.316 16.7338934,14.3854839 16.6792246,14.4890323 C16.6747658,14.5091613 16.6665267,14.5184516 16.6515994,14.5203871 C16.6179645,14.5405161 16.5917932,14.5723548 16.553021,14.5831935 C16.5357674,14.6111613 16.5119225,14.6362258 16.5011632,14.6673871 C16.4744103,14.7314516 16.4498869,14.7541935 16.4113086,14.8126452 C16.3726333,14.871 16.3358966,14.9049677 16.2843296,15.0012581 C16.2073667,15.1619032 16.1171244,15.3124839 16.0421002,15.4716774 C16.0140872,15.4716774 15.9941195,15.4973226 15.9740549,15.5587742 C15.9555412,15.6063871 15.9270436,15.6372581 15.9210339,15.6896129 C15.8969952,15.7327742 15.8801292,15.7793226 15.8461066,15.8169677 C15.816252,15.8573226 15.7919225,15.8959355 15.7919225,15.903 C15.767496,15.9509032 15.7411309,16.0036452 15.7041034,16.0403226 C15.6849111,16.0874516 15.6536995,16.1345806 15.6510824,16.1928387 C15.6478837,16.2076452 15.6422617,16.2311613 15.6384814,16.2450968 C15.6593215,16.2749032 15.6825848,16.3243548 15.7127302,16.3576452 C15.7416155,16.3945161 15.7608078,16.4418387 15.8115994,16.4461935 C15.8412601,16.448129 15.8616155,16.4551935 15.8731502,16.4675806 C15.8963166,16.4923548 15.8949596,16.503871 15.8657835,16.5287419 C15.8376737,16.5528387 15.834475,16.5646452 15.8561874,16.5646452 C15.8618094,16.5849677 15.9280129,16.635871 15.8807108,16.6542581 C15.8645234,16.6432258 15.856769,16.6126452 15.8377706,16.625129 C15.8281745,16.6392581 15.8617124,16.7928387 15.8759612,16.8000968 C15.8700485,16.8243871 15.87063,16.8640645 15.8520194,16.8987097 C15.8535703,16.9514516 15.8377706,16.9969355 15.7979321,17.0732903 C15.7731179,17.1209032 15.7599354,17.1675484 15.7178675,17.202871 C15.7095315,17.2189355 15.696252,17.2420645 15.6883037,17.2544516 C15.6556381,17.3025484 15.6299515,17.343 15.5899192,17.3887742 C15.5522132,17.4361935 15.5132472,17.4799355 15.473021,17.5258065 C15.4204847,17.5855161 15.3804523,17.6607097 15.3253958,17.7223548 C15.315412,17.7453871 15.3046527,17.756129 15.2914701,17.756129 C15.2574475,17.7995806 15.2098546,17.8449677 15.1775767,17.891129 C15.1694346,17.9279032 15.1545073,17.9442581 15.1290145,17.9442581 C15.1069144,17.9442581 15.0728918,17.9680645 15.072601,17.9836452 C15.0416801,18.0259355 15.0060097,18.0695806 14.9841034,18.1176774 C14.9557027,18.1526129 14.9215832,18.1839677 14.896769,18.2236452 C14.8181583,18.2996129 14.7768659,18.3760645 14.6885622,18.4407097 C14.6545396,18.4874516 14.6281745,18.5587742 14.5851373,18.5745484 C14.5400646,18.6390968 14.4918901,18.7015161 14.4367367,18.7541613 C14.3920517,18.7966452 14.3366074,18.8392258 14.3099515,18.8974839 C14.3210016,18.9373548 14.2818417,18.9703548 14.17958,19.007129 C14.1266559,19.0260968 14.0876898,19.0453548 14.0876898,19.0523226 C14.0589015,19.0711935 14.0292407,19.1025484 13.9928918,19.1143548 C13.9602262,19.1394194 13.9294992,19.1639032 13.897609,19.1897419 C13.8671729,19.2198387 13.8610662,19.2324194 13.8610662,19.2647419 C13.8610662,19.3211613 13.897706,19.3895806 13.9427787,19.4172581 C13.978643,19.4519032 14.0185784,19.4823871 14.0579321,19.5108387 C14.1107593,19.5383226 14.1620355,19.5703548 14.222811,19.5731613 C14.2798061,19.5764516 14.286979,19.5790645 14.2956058,19.5995806 C14.3056866,19.6237742 14.3196446,19.6185484 14.3256543,19.5883548 C14.3280775,19.5759677 14.3432956,19.5671613 14.3769305,19.5584516 C14.4321809,19.5443226 14.4481745,19.5519677 14.4382876,19.587871 C14.4308239,19.6150645 14.4071729,19.6261935 14.3842003,19.613129 C14.3741195,19.6074194 14.3591922,19.6070323 14.3440711,19.6121613 L14.3199354,19.6202903 L14.3477544,19.6404194 C14.38042,19.664129 14.3795477,19.694129 14.3461066,19.6984839 C14.327399,19.7009032 14.3241034,19.6972258 14.3241034,19.6735161 C14.3241034,19.6440968 14.2985137,19.626 14.2850404,19.6457419 C14.2753473,19.6600645 14.2927948,19.7340968 14.312084,19.7609032 C14.3203231,19.7724194 14.3444588,19.7898387 14.3656866,19.7996129 C14.3869144,19.8094839 14.4227787,19.8348387 14.4454604,19.8559355 C14.5540226,19.9370323 14.666559,19.9879355 14.8014863,20.0119355 C14.8599354,20.0284839 14.9130533,20.0432903 14.96937,20.0669032 C15.0018417,20.0730968 15.0625202,20.0884839 15.1042003,20.1011613 C15.1775767,20.1234194 15.1825202,20.1238065 15.2629725,20.1124839 C15.3087237,20.106 15.3588368,20.1035806 15.3744426,20.1070645 C15.3900485,20.1105484 15.4249435,20.1162581 15.452084,20.1198387 C15.4791276,20.1233226 15.5168336,20.1340645 15.5357351,20.1436452 C15.5807108,20.1663871 15.6343134,20.2110968 15.6343134,20.2258065 C15.6583522,20.2451613 15.6931502,20.2569677 15.7086591,20.2856129 C15.7571244,20.3294516 15.8054927,20.3725161 15.8642326,20.3938065 C15.8705331,20.4089032 15.9054281,20.4129677 15.9143457,20.3998065 C15.9173506,20.3953548 15.9137641,20.3761935 15.9063974,20.357129 C15.8990307,20.3380645 15.8896284,20.3044839 15.8854604,20.2824194 C15.8725687,20.2545484 15.8639418,20.2257097 15.8472698,20.1994839 C15.8438772,20.1859355 15.838546,20.1652258 15.8352504,20.1535161 C15.8492084,20.1422903 15.8730533,20.1063871 15.9039742,20.0983548 C15.9902423,20.0780323 16.0736026,20.0521935 16.1575444,20.024129 C16.1704362,20.0150323 16.2071729,19.9959677 16.239063,19.9815484 C16.3104039,19.9277419 16.3932795,19.8869032 16.4564782,19.8222581 C16.4908885,19.7999032 16.5278191,19.773871 16.5602908,19.7495806 C16.6412278,19.7111613 16.6942488,19.6540645 16.7733441,19.6188387 C16.8168659,19.6082903 16.8760905,19.5779032 16.9117609,19.5975484 C16.9220355,19.610129 16.9246527,19.6312258 16.921357,19.6732258 C16.8997415,19.797 16.8395477,19.884871 16.7396123,19.968 C16.7453312,19.9697419 16.7725687,19.9782581 16.7875929,19.9830968 C16.7967044,19.9931613 16.7898223,19.9990645 16.7512439,20.0140645 C16.6987076,20.0666129 16.6416155,20.1167419 16.5856866,20.1761613 C16.5705654,20.1824516 16.5601939,20.195129 16.5583522,20.2096452 C16.5359612,20.238871 16.5020355,20.2595806 16.4907916,20.2980968 C16.4765428,20.3457097 16.4782876,20.4271935 16.4936026,20.4359032 C16.5045557,20.4605806 16.5073667,20.4949355 16.5297577,20.5175806 C16.5380937,20.5375161 16.5462359,20.5421613 16.5724071,20.5421613 C16.6008078,20.5421613 16.6063328,20.5462258 16.6178675,20.5757419 C16.6250404,20.5942258 16.6331826,20.6219032 16.6358966,20.6372903 C16.6401616,20.661 16.6374475,20.6660323 16.6177706,20.6704839 C16.5505008,20.685871 16.4361228,20.64 16.4198384,20.591129 C16.3930856,20.5103226 16.3220355,20.4213871 16.3002262,20.4413226 C16.3051696,20.5107097 16.3108885,20.5859032 16.2940226,20.6545161 C16.2653312,20.6404839 16.2146365,20.6549032 16.1982553,20.6075806 C16.1887561,20.6044839 16.165105,20.5863871 16.145622,20.5675161 C16.1215832,20.5442903 16.1016155,20.5332581 16.0836834,20.5332581 C16.0484976,20.5332581 16.0403554,20.556 16.0665267,20.5812581 C16.1063651,20.6239355 16.1435864,20.6714516 16.1803231,20.7168387 C16.1895315,20.7527419 16.1894346,20.7616452 16.1795477,20.8243548 C16.1717932,20.8741935 16.1691761,20.8783548 16.1440711,20.8809677 C16.1172213,20.8837742 16.1169305,20.8843548 16.1169305,20.9505484 C16.1169305,21.0154839 16.1231341,21.0341613 16.1588045,21.0785806 C16.1715024,21.0943548 16.1760582,21.1172903 16.1760582,21.1652903 L16.1760582,21.2306129 L16.2325687,21.2644839 C16.2672698,21.3185806 16.2419709,21.3538065 16.3286268,21.3573871 C16.4116963,21.4142903 16.4867205,21.4428387 16.5884006,21.4453548 C16.611567,21.4456452 16.6624556,21.4500968 16.7013247,21.455129 C16.7401939,21.4602581 16.7931179,21.4668387 16.8188045,21.4696452 C16.847496,21.4729355 16.8766721,21.4833871 16.8941195,21.4968387 C16.9383199,21.4995484 16.9955089,21.5080645 17.0340872,21.5030323 C17.0468821,21.5232581 17.0810016,21.522871 17.1663005,21.5012903 C17.2093376,21.4904516 17.2386107,21.4870645 17.2444265,21.4922903 C17.2616801,21.507871 17.323231,21.501871 17.3411632,21.4828065 C17.3949596,21.4597742 17.447399,21.4304516 17.5104039,21.4297742 C17.6096607,21.4175806 17.6142165,21.4160323 17.6147011,21.3949355 C17.6150889,21.3767419 17.684685,21.335129 17.7468174,21.315871 C17.7883037,21.303 17.7916963,21.2997097 17.7916963,21.2714516 C17.8184491,21.2480323 17.8449111,21.2095161 17.8943457,21.2051613 C17.9780937,21.1738065 18.0169628,21.1009355 18.1036187,21.1097419 C18.1723425,21.1150645 18.1769952,21.1142903 18.1863974,21.0953226 C18.2313732,21.0050323 18.2687884,20.9789032 18.3573829,20.9757097 C18.4090468,20.973871 18.4173829,20.9709677 18.4291115,20.9505484 C18.4677868,20.9386452 18.5172213,20.9173548 18.5614216,20.9040968 C18.5921486,20.8848387 18.6049435,20.8819355 18.6373183,20.886871 C18.664168,20.8910323 18.6778352,20.8981935 18.6813247,20.9100968 C18.6889822,20.937 18.7329887,20.9320645 18.7669144,20.9005161 C18.782811,20.8857097 18.8045234,20.8736129 18.8150889,20.8736129 C18.8336995,20.8736129 18.8653958,20.8951935 18.8654927,20.907871 C18.8655897,20.9170645 18.9221971,20.9444516 18.9286914,20.9385484 C18.9465267,20.9255806 18.9443942,20.8577419 18.9932472,20.8914194 C19.0179645,20.9034194 19.0690468,20.9057419 19.1053958,20.8963548 C19.1438772,20.8947097 19.1698546,20.9164839 19.2108562,20.8916129 C19.2281099,20.8916129 19.2309208,20.8962581 19.2282068,20.9204516 C19.2250081,20.9491935 19.2252989,20.9493871 19.2693053,20.9496774 C19.2937318,20.9497742 19.3215509,20.9459032 19.331147,20.940871 C19.3510178,20.9307097 19.3697254,20.9483226 19.3610016,20.9690323 C19.3580937,20.976 19.3662359,20.9844194 19.3805816,20.9894516 C19.4210985,21.0034839 19.4368013,21.0329032 19.4368013,21.095129 C19.4368013,21.1452581 19.4389338,21.1513548 19.4563813,21.1513548 C19.4715994,21.1513548 19.4773183,21.1434194 19.4822617,21.1155484 C19.4926333,21.1129355 19.532084,21.0402581 19.571147,21.0930968 C19.5956704,21.1089677 19.6563489,21.0932903 19.639483,21.1372258 C19.6484006,21.1750645 19.6416155,21.2216129 19.6792246,21.2413548 C19.7071405,21.245129 19.7346688,21.2518065 19.7632633,21.252871 C19.8058158,21.2605161 19.8157997,21.2822903 19.7962197,21.324871 C19.7917609,21.3727742 19.7905008,21.4237742 19.7728595,21.4692581 C19.7487237,21.5188065 19.7449435,21.5724194 19.7655897,21.5724194 C19.7883683,21.5724194 19.827916,21.5163871 19.8351858,21.4737097 C19.8454604,21.414 19.8505008,21.4021935 19.865525,21.4021935 C19.8755089,21.4021935 19.8799677,21.4183548 19.8821002,21.4626774 C19.8847173,21.5176452 19.8870436,21.5234516 19.9071082,21.5259677 C19.9202908,21.4876452 19.9450081,21.4173871 19.9515024,21.3641613 C19.9637157,21.3555484 19.9825202,21.3494516 19.9933764,21.3507097 C19.9993861,21.3807097 20.01063,21.462871 20.0327302,21.4873548 C20.0492084,21.4873548 20.0532795,21.4798065 20.0575444,21.4414839 C20.0650081,21.3739355 20.1021325,21.3430645 20.1263651,21.3842903 C20.1321809,21.3941613 20.1415832,21.4021935 20.147399,21.4021935 C20.1615509,21.4021935 20.1522456,21.2413548 20.1365428,21.2147419 C20.1113409,21.171871 20.1433279,21.1579355 20.2094346,21.183 L20.2455897,21.1968387 L20.2407431,21.2448387 C20.2359935,21.2911935 20.236769,21.2929355 20.2623586,21.2973871 C20.2768982,21.2999032 20.2921163,21.3000968 20.2962843,21.2977742 C20.3076252,21.2913871 20.305105,21.1973226 20.2929887,21.1768065 C20.2777706,21.1509677 20.28979,21.1155484 20.3137318,21.1155484 C20.317706,21.0985161 20.3339903,21.0208065 20.3504685,21.012871 C20.3599677,21.0166452 20.3787722,21.020129 20.3923425,21.0206129 C20.4137641,21.0212903 20.4173506,21.0172258 20.4199677,20.9890645 C20.4221971,20.9650645 20.4165751,20.949871 20.3982553,20.930129 C20.3736349,20.9034194 20.3723748,20.8753548 20.3945719,20.8494194 C20.3751858,20.8337419 20.3409693,20.817871 20.3423263,20.8073226 C20.3488207,20.8001613 20.3510501,20.7847742 20.3473667,20.7715161 C20.3478514,20.7715161 20.4172536,20.7553548 20.4468174,20.7890323 C20.4710501,20.7849677 20.482294,20.7866129 20.4848142,20.7948387 C20.504685,20.859871 20.5148627,20.9144516 20.5159289,20.9622581 C20.5168982,21.0065806 20.521357,21.0223548 20.5352181,21.0315484 C20.5494669,21.0410323 20.5563489,21.0412258 20.5676898,21.0327097 C20.5857189,21.0190645 20.5777706,20.8961613 20.5563489,20.8580323 C20.5202908,20.7937742 20.5320194,20.7394839 20.5861066,20.7208065 C20.6382553,20.7027097 20.6517286,20.7400645 20.627496,20.8353871 C20.6181906,20.8721613 20.6189661,20.8835806 20.6327302,20.9076774 C20.6416478,20.9234516 20.6532795,20.9363226 20.6586107,20.9363226 C20.6639418,20.9363226 20.6736349,20.9179355 20.6802262,20.8954839 C20.6922456,20.8547419 20.6924394,20.8545484 20.7319871,20.8573548 L20.7716317,20.8601613 L20.7746365,20.823 C20.7647496,20.76 20.7555412,20.696129 20.7470113,20.6327419 C20.7470113,20.5932581 20.7496284,20.5869677 20.7663005,20.5869677 C20.7885945,20.5869677 20.8356058,20.6295484 20.8356058,20.649871 C20.8356058,20.666129 20.8627464,20.7033871 20.8745719,20.7033871 C20.8791276,20.7033871 20.891147,20.6880968 20.9014216,20.6692258 L20.9200323,20.6350645 L20.8357027,20.5177742 C20.8078837,20.4857419 20.7928595,20.4302903 20.8058481,20.4082258 C20.8131179,20.3958387 20.8126333,20.3790968 20.8042973,20.3507419 C20.7918901,20.3082581 20.8022617,20.2824194 20.8317286,20.2824194 C20.8415186,20.2824194 20.8848465,20.3449355 20.8848465,20.3591613 C20.8985137,20.3767742 20.9491115,20.4602903 20.9671405,20.4974516 C20.9599677,20.5297742 20.9767367,20.5511613 21.0092084,20.5511613 C21.0314055,20.5511613 21.0326656,20.5480645 21.0326656,20.496 C21.0326656,20.4496452 21.0271405,20.4319355 20.9981583,20.3848065 C20.9557997,20.3159032 20.9516317,20.2681935 20.9870113,20.256 C21.0136672,20.2483548 21.0227787,20.2034516 21.0520517,20.2374194 C21.0868498,20.259871 21.1063328,20.3147419 21.0975121,20.3650645 C21.0884976,20.4159677 21.0988691,20.4410323 21.1335703,20.4519677 C21.1501454,20.4572903 21.167399,20.4615484 21.1720517,20.4615484 C21.185622,20.4615484 21.1809693,20.3695161 21.1661389,20.3452258 C21.1580937,20.3319677 21.1558643,20.3174516 21.1607108,20.3092258 C21.1651696,20.3017742 21.1644911,20.2774839 21.1591599,20.2554194 C21.1539257,20.2332581 21.1487884,20.1994839 21.1478191,20.1804194 C21.1455897,20.1383226 21.1219386,20.1198387 21.0921809,20.1366774 C21.061454,20.1541935 21.0423586,20.1416129 21.0433279,20.1044516 C21.0444911,20.0578065 21.0572859,19.9703226 21.0637803,19.9644194 C21.08937,19.9833871 21.1406462,19.9907419 21.1456866,20.0394194 C21.142294,20.0474516 21.1382229,20.0690323 21.1366721,20.0875161 C21.1340549,20.1194516 21.135412,20.1210968 21.1636187,20.1210968 C21.1802908,20.1210968 21.2078191,20.1311613 21.2262359,20.1440323 C21.2533764,20.1627097 21.2591922,20.172871 21.2591922,20.2004516 C21.2591922,20.2435161 21.2769305,20.265871 21.3053312,20.259 C21.3368336,20.2512581 21.3387722,20.2369355 21.3170598,20.1735484 C21.2968982,20.1149032 21.298643,20.0637097 21.3210339,20.0559677 C21.340517,20.0492903 21.3752181,20.0647742 21.3876252,20.085871 C21.3939257,20.0965161 21.4010985,20.1320323 21.4036187,20.1647419 C21.4081745,20.2255161 21.424168,20.2502903 21.4522779,20.2405161 C21.4734087,20.2331613 21.459063,20.1165484 21.4320194,20.0762903 C21.4204847,20.0590645 21.4056543,20.028871 21.3992569,20.009129 C21.3886914,19.9769032 21.3894669,19.9719677 21.4069144,19.959871 C21.4202908,19.9505806 21.4244588,19.9402258 21.4203877,19.9262903 C21.3756058,19.9240645 21.3647496,19.9154516 21.3137641,19.920871 C21.2875929,19.9035484 21.3002908,19.8927097 21.3615509,19.8802258 C21.4105977,19.8702581 21.4191276,19.8709355 21.4555735,19.887871 C21.493958,19.9053871 21.5049111,19.9528065 21.5564782,19.9338387 L21.5829402,19.932 L21.5785784,20.0010968 C21.576252,20.039129 21.56937,20.0756129 21.5633603,20.0821935 C21.5573506,20.0887742 21.5545396,20.1042581 21.5571567,20.1165484 C21.5597738,20.1289355 21.5561874,20.1460645 21.5493053,20.1546774 C21.5307916,20.1777097 21.5493053,20.1932903 21.5875929,20.1867097 C21.6337318,20.1787742 21.6406139,20.1704516 21.6477868,20.114129 C21.6514701,20.0859677 21.6567044,20.055871 21.6594184,20.0472581 C21.6663005,20.0255806 21.7067205,20.0272258 21.7414216,20.0505484 C21.777189,20.0745484 21.788433,20.0679677 21.7966721,20.0179355 C21.8017124,19.9869677 21.8074313,19.9777742 21.8214863,19.9777742 C21.831567,19.9777742 21.8444588,19.9859032 21.8502746,19.9956774 C21.8571567,20.0074839 21.8709208,20.0136774 21.8900162,20.0136774 C21.915315,20.0136774 21.9192892,20.0102903 21.9191922,19.989 C21.9191922,19.9754516 21.9081422,19.9444839 21.8945719,19.9202903 C21.877706,19.8076452 21.8817771,19.7722258 22.0065267,19.7999032 L22.0008078,19.8799355 C21.9955735,19.9543548 21.9964459,19.959871 22.0137964,19.9597742 C22.0489822,19.9594839 22.0597415,19.9451613 22.0621648,19.895129 C22.0685622,19.8358065 22.081357,19.7803548 22.0750565,19.7194839 C22.081454,19.7112581 22.0910501,19.6954839 22.0963813,19.6844516 C22.1035541,19.6691613 22.1141195,19.6642258 22.1394184,19.6642258 C22.1690792,19.6642258 22.1736349,19.6675161 22.179063,19.6922903 C22.1824556,19.7076774 22.1852666,19.7381613 22.1852666,19.7600323 C22.1852666,19.8082258 22.1991276,19.8344516 22.2246204,19.8344516 C22.2528271,19.8344516 22.2642649,19.8078387 22.2537964,19.7667097 C22.2498223,19.722 22.254475,19.6804839 22.2345073,19.6412903 C22.2345073,19.6162258 22.2569952,19.6127419 22.3091438,19.629871 C22.3584814,19.646129 22.3992892,19.6266774 22.4234249,19.5753871 C22.4533764,19.5118065 22.4660743,19.503 22.5290792,19.5026129 C22.5894669,19.4715484 22.6546042,19.4392258 22.7049111,19.3878387 C22.7144103,19.3890968 22.7324394,19.3850323 22.7450404,19.3787419 C22.7807108,19.4019677 22.7767367,19.395871 22.816769,19.4254839 C22.8455574,19.4095161 22.8631987,19.3893871 22.897609,19.3806774 C22.9178675,19.38 22.9453958,19.3728387 22.9588691,19.3648065 C22.9799031,19.3522258 22.9825202,19.3455484 22.9774798,19.3168065 C22.9721486,19.286129 22.9742811,19.2821613 23.0045234,19.2663871 C23.0225525,19.2569032 23.052504,19.2372581 23.0711147,19.2226452 C23.1030048,19.1975806 23.108433,19.1964194 23.1670759,19.2013548 C23.2086591,19.1903226 23.2441357,19.191 23.2818417,19.1764839 C23.2990953,19.1797742 23.3182876,19.1862581 23.3243942,19.1908065 C23.342811,19.2041613 23.4004847,19.2076452 23.4087237,19.1957419 C23.4128918,19.1898387 23.4163813,19.1720323 23.4164782,19.1562581 C23.4166721,19.1256774 23.4343134,19.0818387 23.4508885,19.0708065 C23.4817124,19.0501935 23.5607108,19.095 23.5495638,19.1267419 C23.5450081,19.1399032 23.5537318,19.143 23.6082068,19.148129 C23.6752827,19.1543226 23.6984491,19.1452258 23.7150242,19.1059355 C23.7228756,19.0872581 23.7578675,19.0863871 23.7775444,19.1043871 C23.7996446,19.1243226 23.8338611,19.1206452 23.8599354,19.0953871 C23.8991922,19.0471935 23.9389338,18.9991935 23.9980614,18.9744194 C24.0235541,18.999 24.0629079,19.0197097 24.0835541,19.046129 C24.1002262,19.046129 24.1225202,19.0352903 24.1432633,19.017 C24.1724394,18.9911613 24.1825202,18.987871 24.2313732,18.987871 C24.2789661,18.987871 24.2877868,18.9851613 24.2963166,18.9677419 C24.3242326,18.9366774 24.3378029,18.8959355 24.382294,18.8839355 C24.4031341,18.8701935 24.4858158,18.9159677 24.5011309,18.9495484 C24.5151858,18.9805161 24.5365105,18.9814839 24.5512439,18.9520645 C24.5842003,18.9272903 24.6173506,18.9014516 24.6479806,18.8759032 C24.6602908,18.8549032 24.6941195,18.8529677 24.7212601,18.8717419 C24.7489822,18.8908065 24.7820355,18.8879032 24.8224556,18.8629355 C24.8479483,18.8471613 24.8626817,18.8432903 24.8746042,18.8490968 C24.9316963,18.8636129 24.9927625,18.8741613 25.0445234,18.9018387 C25.0648788,18.9293226 25.0991922,18.9447097 25.1058805,18.9846774 C25.1233279,18.9979355 25.1239095,19.0018065 25.1116963,19.0226129 C25.0898869,19.0753548 25.0610985,19.0878387 25.0566397,19.1593548 C25.0477221,19.1964194 25.0872698,19.1976774 25.0371567,19.2405484 C25.0181583,19.2582581 25.0028433,19.2772258 25.0030372,19.2826452 C25.0036187,19.2970645 25.0539257,19.3468065 25.0748627,19.3536774 C25.0662359,19.3602581 25.0581906,19.3790323 25.0487884,19.3735161 C25.0227141,19.4062258 24.9915024,19.4362258 24.9839418,19.475129 C24.9847173,19.5504194 24.9704685,19.6241613 24.9522456,19.6399355 C24.9174475,19.7670968 24.8965105,19.8759677 24.8350565,19.9715806 C24.8146042,20.0447419 24.7930856,20.1209032 24.7656543,20.1928065 C24.7349273,20.2405161 24.7163166,20.2896774 24.7208724,20.310871 C24.7236834,20.324129 24.7233926,20.3550968 24.7201939,20.379871 C24.7153473,20.4167419 24.7105977,20.4252581 24.693441,20.4274839 C24.7009047,20.4868065 24.6761874,20.5417742 24.6653312,20.6216129 C24.6589338,20.7014516 24.653021,20.7774194 24.6092084,20.8460323 C24.5912763,20.9020645 24.5765428,20.9622581 24.5530856,21.0193548 C24.5471729,21.0857419 24.5415509,21.1471935 24.5161551,21.2086452 C24.5011309,21.2699032 24.4806785,21.3387097 24.4798061,21.3879677 C24.4789338,21.437129 24.4691438,21.4969355 24.428336,21.5365161 C24.4037157,21.6305806 24.3341195,21.7873548 24.3168659,21.7873548 C24.3004847,21.8427097 24.2989338,21.8986452 24.253958,21.9466452 C24.253958,21.9691935 24.245525,21.9914516 24.2293376,22.0113871 C24.2059774,22.0848387 24.1794184,22.1574194 24.1254281,22.2176129 C24.1187399,22.3104194 24.1340549,22.4110645 24.0455574,22.4503548 C24.0184168,22.5090968 24.0372213,22.5623226 23.9259451,22.6673226 C23.9039418,22.6651935 23.9003554,22.6690645 23.8943457,22.7015806 C23.847916,22.7817097 23.7940226,22.8125806 23.7416801,22.9025806 C23.7416801,22.9103226 23.7312116,22.9202903 23.7183199,22.9246452 C23.6999031,22.9455484 23.6806139,22.9666452 23.6620032,22.9882258 C23.607916,23.030129 23.5826171,23.0339032 23.568853,23.1050323 C23.553441,23.1525484 23.5537318,23.204129 23.5057512,23.2359677 C23.4949919,23.2384839 23.4834572,23.2484516 23.4800646,23.258129 C23.4290792,23.3077742 23.3925363,23.3922581 23.3304039,23.4002903 C23.3154766,23.414129 23.2885299,23.4252581 23.2762197,23.4506129 C23.2585784,23.4647419 23.2363813,23.4873871 23.2267851,23.5008387 C23.2170921,23.5142903 23.2027464,23.5253226 23.1947011,23.5253226 C23.1827787,23.5472903 23.1719225,23.5634516 23.1605816,23.5879355 C23.0562843,23.7109355 22.926979,23.8164194 22.8396446,23.9561613 C22.8040711,24.0003871 22.7686914,24.0473226 22.7269144,24.0827419 C22.7266236,24.0977419 22.6482068,24.1750645 22.6260097,24.1822258 C22.5943134,24.2263548 22.5496284,24.2712581 22.534895,24.3283548 C22.5122132,24.3538065 22.4811955,24.3795484 22.462391,24.4032581 C22.4189661,24.4492258 22.3774798,24.5013871 22.3411309,24.5555806 C22.3162197,24.6045484 22.3036187,24.6516774 22.2756058,24.6966774 C22.2504039,24.7409032 22.2319871,24.7893871 22.1966074,24.8220968 C22.2,24.840871 22.1255574,25.0034516 22.1136349,25.0034516 C22.0810662,25.0537742 22.0434572,25.104871 22.0175767,25.1604194 C21.993538,25.2057097 21.9647496,25.2486774 21.9487561,25.2978387 C21.8695638,25.3798065 21.8123748,25.482871 21.7123425,25.5408387 C21.6300485,25.5969677 21.5460097,25.6514516 21.44937,25.6801935 C21.353021,25.6991613 21.2534733,25.7221935 21.1508239,25.7135806 C21.0289822,25.7173548 20.9048142,25.7203548 20.8750565,25.7202581 C20.8452019,25.7201613 20.7927625,25.7279032 20.7584491,25.7374839 C20.6718901,25.7522903 20.5889176,25.7780323 20.5023586,25.7906129 C20.4770598,25.7894516 20.4378029,25.7915806 20.4152181,25.7953548 C20.3331179,25.800871 20.2746688,25.8058065 20.1992569,25.8545806 C20.1393538,25.8915484 20.0558966,25.9313226 20.0099515,25.9561935 C19.9639095,25.9809677 19.9360905,26.0210323 19.914475,26.0247097 C19.851664,26.072129 19.79021,26.1341613 19.71063,26.1519677 C19.6819386,26.1773226 19.6126333,26.2316129 19.5646527,26.2635484 C19.5480775,26.2665484 19.5280129,26.2775806 19.5200646,26.2879355 C19.4677221,26.3383548 19.4216801,26.394 19.3471405,26.4091935 C19.3355089,26.4236129 19.3184491,26.4371613 19.3092407,26.4392903 C19.2975121,26.4420968 19.2873344,26.4642581 19.2747334,26.514 C19.2724071,26.5229032 19.2694992,26.5297742 19.266979,26.5378065 C18.9123102,26.6158065 18.6882068,26.6647742 18.6836511,26.6647742 L18.4867851,26.5823226 L18.4200969,26.5705161 L18.3322779,26.5529032 L18.1505331,26.5145806 L18.0112439,26.4233226 L17.9718901,26.3732903 L17.868853,26.3732903 L17.7537964,26.432129 L17.6658805,26.4027097 L17.5204847,26.4174194 L17.3357351,26.4880645 L17.2419063,26.4674516 L17.1267528,26.4792581 L17.0631664,26.5116774 L17.0207108,26.4851613 L17.0298223,26.4115161 L17.017706,26.2908387 L16.9177706,26.2879355 L16.8420679,26.3850968 L16.7087884,26.5292903 L16.6178675,26.5322903 L16.5421648,26.4674516 L16.4724717,26.4145161 L16.4028756,26.4292258 L16.378643,26.4616452 L16.1635541,26.6647742 L16.1423263,26.6853871 L16.0545073,26.7089032 L15.9605816,26.6764839 L15.9061066,26.6441613 L15.8151858,26.7295161 L15.7455897,26.8708065 L15.66979,26.9297419 L15.4759289,26.9826774 L15.403231,26.9532581 L15.3487561,26.859 L15.1427787,26.8944194 L15.0852019,26.9385484 L15.0367367,26.9503548 L14.9216801,26.8266774 L14.8610985,26.7530323 L14.782294,26.7383226 L14.7217124,26.7619355 L14.6187722,26.8001613 L14.4612601,26.7854516 L14.4370275,26.8797097 L14.4582553,26.9179355 L14.5127302,27.068129 L14.4612601,27.1445806 L14.3188691,27.1917097 L14.2946365,27.2535484 L14.2401616,27.3153871 L14.1583522,27.336 L14.0311793,27.3595161 L13.9160258,27.3948387 L13.8433279,27.4242581 L13.6524717,27.495 L13.5344103,27.495 L13.4798384,27.4743871 L13.3920194,27.5126129 L13.2648465,27.5332258 L13.1830372,27.4596774 L13.0194184,27.3389032 L12.9346042,27.4066452 L12.7559612,27.6126774 L12.5833279,27.5891613 L12.5529887,27.4772903 L12.4802908,27.383129 L12.4075929,27.4301613 L12.3682391,27.4979032 L12.3106624,27.492 L12.28042,27.3919355 L12.2743134,27.3153871 L12.2167367,27.3153871 L12.1380291,27.383129 L12.0744426,27.495 L12.0259774,27.5214194 L11.9714055,27.4655806 L11.9290468,27.3389032 L11.9078191,27.2565484 L11.8169952,27.2417419 L11.7987722,27.3389032 L11.7806462,27.4007419 L11.7685299,27.4566774 L11.7351858,27.6303871 L11.677609,27.6893226 L11.6261389,27.6628065 L11.58979,27.6097742 L11.5200969,27.4449677 L11.4352827,27.4449677 L11.4080452,27.5774516 L11.3293376,27.7128387 L11.0717932,28.0043226 L10.8658158,28.0366452 L10.7749919,27.81 L10.7356381,27.7981935 L10.7052989,27.854129 L10.6447173,28.0513548 L10.5538934,28.0719677 L10.4145073,28.0896774 L10.3449111,28.1368065 L10.2812278,28.1427097 L10.2631018,28.0896774 L10.2116317,27.9954194 L10.1419386,28.0749677 L10.1025848,28.1927419 L9.9057189,28.3222258 L9.70575121,28.331129 L9.28168013,28.599 L9.15150242,28.5665806 L9.06058158,28.5665806 L8.79712439,28.707871 L8.64261712,28.7520968 L8.42452342,28.8168387 L8.30636511,28.8227419 L8.22765751,28.799129 L8.05802908,28.8315484 L7.84594507,28.8992903 L7.46132472,28.9817419 L7.39773829,28.9846452 C7.25893376,29.0896452 7.11208401,29.151 6.94633279,29.1995806 C6.89854604,29.1997742 6.80113086,29.222129 6.71311793,29.2555161 C6.64420032,29.2816452 6.64022617,29.2848387 6.63441034,29.3231613 C6.61366721,29.3699032 6.58003231,29.4142258 6.59505654,29.4645484 C6.69189015,29.5345161 6.96319871,29.5713871 7.17053312,29.5675161 C7.18672052,29.5882258 7.33240711,29.5880323 7.36739903,29.5675161 C8.13450727,29.573129 8.75021002,29.5000645 9.42106624,29.6087419 C9.56103393,29.6384516 9.71001616,29.6518065 9.75421648,29.6411613 C10.0360905,29.6423226 10.3159289,29.6486129 10.596252,29.6587742 C10.6738934,29.6578065 10.7530856,29.6535484 10.8325687,29.6587742 C10.9026494,29.6567419 11.0843942,29.6524839 11.235412,29.6499677 C11.5614863,29.6445484 11.7696931,29.6350645 11.7836511,29.6235484 C12.0663974,29.7393871 12.3528271,29.7233226 12.6256866,29.7412258 C12.6587399,29.757 12.7945396,29.7649355 13.1496931,29.7736452 C13.2248142,29.7762581 13.3078837,29.7896129 13.3799031,29.7824516 C14.3755735,29.7237097 15.3047496,29.6244194 16.290727,29.5705161 C16.4564782,29.5594839 16.6360905,29.5348065 16.7844911,29.5292903 C16.7844911,29.5279355 16.9559612,29.523871 17.193441,29.5174839 C17.2800969,29.5139032 17.3684976,29.5078065 17.4508885,29.5086774 C17.5062359,29.4905806 17.838126,29.4853548 17.9900162,29.499871 C18.9664943,29.5544516 19.8518578,29.5382903 20.8191276,29.6352581 C20.8626494,29.6487097 21.0078514,29.6599355 21.0734733,29.655871 C21.8925363,29.6531613 22.6123425,29.7260323 23.4361551,29.7442258 C23.6017124,29.7545806 23.7681422,29.7446129 23.9328271,29.7677419 C24.1318255,29.7774194 24.3252019,29.7791613 24.5235218,29.8059677 C24.5680129,29.8084839 24.6109532,29.8136129 24.6174475,29.8177742 C25.2039742,29.894129 25.8250081,29.900129 26.4045557,29.9885806 C26.45021,30.0022258 26.6728595,30.0041613 26.6922456,29.9914839 C26.7894669,29.9879032 26.8863005,29.9740645 26.9830372,29.9649677 C27.1006139,29.9643871 27.2046204,29.9060323 27.2799354,29.9590645 C27.3006785,29.9456129 27.4444265,29.9389355 27.4706947,29.9502581 C27.7107916,29.9095161 27.9513732,29.9478387 28.1946688,29.9355484 C28.4392246,29.9324516 28.6806785,29.9141613 28.9246527,29.903129 C29.081874,29.8989677 29.2370598,29.871 29.3940872,29.8737097 C29.4636834,29.8745806 29.5361874,29.8783548 29.6061712,29.8560968 C29.6565751,29.8466129 29.7253958,29.8416774 29.7788045,29.8442903 C30.0901454,29.8377097 30.3982876,29.7690968 30.7117609,29.7853548 C30.9570921,29.7453871 31.186042,29.748871 31.4144103,29.7206129 C31.702294,29.7192581 31.984168,29.649 32.2746688,29.6499677 C32.75021,29.6244194 33.2215832,29.5918065 33.6861712,29.5528065 C34.0466559,29.5323871 34.505525,29.4873871 34.7584168,29.4850645 C35.3705331,29.4765484 36.1268821,29.3516129 36.6364459,29.3555806 C36.7854281,29.3432903 36.9353796,29.3578065 37.0725363,29.3437742 C37.2943134,29.3433871 37.4947658,29.3120323 37.7208078,29.3114516 C38.1059128,29.2625806 38.4840388,29.243129 38.9112116,29.2319032 C38.933021,29.223 39.0032956,29.2168065 39.1050727,29.2142903 C39.2200323,29.2094516 39.3232633,29.1730645 39.4352181,29.1877742 C39.8101454,29.1550645 40.2023263,29.1514839 40.5740549,29.1465484 C40.5783199,29.1538065 40.6118578,29.1562258 40.6739903,29.1524516 C40.7826494,29.1457742 40.7850727,29.1468387 40.8769628,29.1494516 C41.327496,29.181 41.83958,29.1409355 42.2703393,29.1553548 C42.957189,29.2003548 43.7077221,29.2080968 44.3966074,29.2230968 C45.1805816,29.2480645 46.0017771,29.2522258 46.7471729,29.3437742 C48.2062682,29.4365806 49.2593215,29.3449355 50.5151535,29.4644516 C50.6709208,29.4830323 50.8273667,29.496871 50.984685,29.4909677 C51.0182229,29.4904839 51.3562197,29.4994839 51.4117609,29.5027742 C52.169273,29.4877742 53.1210339,29.4456774 53.5320194,29.4409355 C53.8320194,29.4374516 54.0176414,29.4324194 54.0196769,29.4262258 C55.2949919,29.3733871 56.2014863,29.2016129 57.4757351,29.2407097 C57.9733764,29.1816774 58.466462,29.3005161 58.9690468,29.2819355 C59.0115024,29.2802903 59.0528918,29.2805806 59.0963166,29.2760323 C59.1798708,29.2724516 59.249273,29.2819355 59.3355412,29.2907419 C59.4425525,29.2866774 59.5529564,29.2760323 59.6899192,29.2496129 C59.8503393,29.196 59.9123748,29.0744516 59.9020032,28.8991935 L59.9020032,28.8991935 Z M33.1544103,24.8646774 L33.02937,24.8646774 C32.9557997,24.8674839 32.8957027,24.8815161 32.825622,24.8774516 C32.7554443,24.8748387 32.655412,24.8712581 32.5583845,24.8827742 C32.4916963,24.8866452 32.4303393,24.9014516 32.4303393,24.9135484 C32.3967044,24.9298065 32.3577383,24.9433548 32.3248788,24.9644516 C32.2929887,24.9840968 32.257706,24.9977419 32.2313409,25.0004516 C32.1772536,25.0059677 32.0677221,25.0294839 32.0471729,25.0398387 C31.9943457,25.0655806 31.9503393,25.0862903 31.9057512,25.1235484 C31.893441,25.1290645 31.8783199,25.1369032 31.8631987,25.1452258 C31.8609693,25.1453226 31.8588368,25.1454194 31.8566074,25.1455161 C31.8574798,25.1399032 31.8575767,25.1323548 31.8596123,25.1279032 C31.745525,25.1673871 31.668853,24.9521613 31.5384814,25.0160323 C31.3951212,25.1111613 31.3383199,24.9722903 31.314378,24.8629355 C31.2156058,24.8949677 31.0675929,25.0398387 30.9266559,24.9836129 C30.7933764,24.8593548 30.6115347,25.0797097 30.4481099,25.0366452 C30.4110824,25.0086774 30.3250081,24.8153226 30.2844911,24.8982581 C30.1164136,25.0246452 30.2431018,24.6760645 30.072504,24.7069355 C30.0542811,24.7970323 29.9403877,24.8662258 29.9301131,24.7245484 C29.8988045,24.6892258 29.8726333,24.6765484 29.8514055,24.6774194 L29.8515024,24.6775161 C29.7877221,24.6804194 29.7602908,24.8112581 29.7031018,24.8512258 C29.5846527,24.9696774 29.3572536,24.7739032 29.3123748,24.9808065 C29.2769952,25.1067097 29.0743134,25.1337097 28.9791276,25.0955806 C28.9658481,24.8366129 28.7516317,25.008 28.6247496,25.0837742 C28.5133764,25.2203226 28.3221325,25.064129 28.1946688,25.0867742 C28.1086914,25.0553226 27.968336,25.0734194 28.0129241,24.9512903 C28.1133441,24.8780323 27.9890792,24.6640645 27.9159935,24.8040968 C27.8154766,24.8237419 27.8816801,24.885871 27.7978352,24.8953548 C27.6366397,25.0376129 27.7817447,24.6707419 27.5948627,24.7511613 C27.5422294,24.9405484 27.2994184,24.9671613 27.1133118,24.9601935 C26.9627787,24.9748065 26.8243619,25.0497097 26.6680129,25.0278387 C26.6577383,25.0276452 26.6522132,25.0321935 26.6467851,25.0366452 L26.5329887,25.040129 C26.547916,25.0299677 26.5649758,25.0227097 26.5891115,25.0259032 C26.6159612,25.0253226 26.6433926,25.02 26.6498869,25.014 C26.6552181,24.9828387 26.6545396,24.935129 26.6725687,24.9139355 C26.6809047,24.9139355 26.6920517,24.9032903 26.6974798,24.8903226 C26.7063005,24.8693226 26.7113409,24.8672903 26.7440065,24.8714516 C26.8107916,24.8396129 26.8592569,24.8455161 26.8963813,24.7446774 C26.8920194,24.7084839 26.90937,24.6994839 26.9799354,24.7015161 C27.0333441,24.7030645 27.0463328,24.7005484 27.0554443,24.6869032 C27.0705654,24.6652258 27.0932472,24.6474194 27.1009047,24.6216774 C27.1009047,24.6152903 27.1329887,24.5953548 27.1723425,24.5774516 C27.266559,24.5344839 27.2684006,24.5328387 27.2684006,24.4870645 C27.2857512,24.4668387 27.2856543,24.4203871 27.3300485,24.4152581 C27.3342165,24.4092581 27.3730856,24.4016129 27.4169952,24.398129 C27.488336,24.3925161 27.4973506,24.3897097 27.5052989,24.3706452 C27.5195477,24.3549677 27.5405816,24.3490645 27.544168,24.327871 C27.544168,24.2917742 27.5547334,24.2778387 27.5821648,24.2777419 C27.604168,24.2776452 27.6119225,24.2700968 27.632084,24.2287742 C27.668336,24.2076774 27.6791922,24.1626774 27.7389015,24.1714839 C27.7615832,24.1604516 27.7654604,24.1504839 27.7761228,24.0762581 C27.7796123,24.0516774 27.7873667,24.0287419 27.7932795,24.0254516 C27.8429079,24.0251613 27.8945719,24.0255484 27.9440065,24.0208065 C27.9578675,24.0114194 27.9898546,23.9046774 27.9887884,23.871 C28.0528595,23.8062581 28.0999677,23.7395806 28.1978675,23.7388065 C28.2142488,23.7444194 28.2281099,23.748 28.2286914,23.7469355 C28.229273,23.7457742 28.2378998,23.7143226 28.2477868,23.6770645 C28.2478837,23.6388387 28.232084,23.5292903 28.2771567,23.5579355 C28.3610016,23.5683871 28.3880452,23.5575484 28.4319548,23.4958065 C28.4535703,23.4653226 28.4768336,23.4375484 28.4837157,23.4340645 C28.5512763,23.3784194 28.5546688,23.3443548 28.6389015,23.3533548 C28.6808724,23.3557742 28.6850404,23.354129 28.6909532,23.3327419 C28.6928918,23.3125161 28.6880452,23.2932581 28.6966721,23.2746774 C28.7066559,23.2576452 28.709273,23.2573548 28.7426171,23.2700323 C28.8016478,23.2923871 28.808336,23.2892903 28.8006785,23.2426452 C28.7968982,23.2201935 28.7854604,23.178871 28.7750889,23.1508065 C28.7402908,23.0561613 28.7529887,23.0314839 28.8248142,23.0540323 C28.8602908,23.0651613 28.8649435,23.0646774 28.8810339,23.0485161 C28.903231,23.0227742 28.8847173,22.9736129 28.9376414,22.9829032 C28.98979,22.9758387 28.9929887,22.9726452 28.9969628,22.9234839 C28.99958,22.8915484 29.0054927,22.8834194 29.0419386,22.8611613 C29.0760582,22.8313548 29.1208401,22.8023226 29.1548627,22.7855806 C29.20042,22.7765806 29.2039095,22.7740645 29.2020679,22.7508387 C29.1916963,22.7229677 29.1728918,22.6984839 29.1713409,22.6683871 C29.2500485,22.5886452 29.351147,22.4926452 29.3797415,22.3692581 C29.3856543,22.3154516 29.3961228,22.3064516 29.4484653,22.310129 C29.4942165,22.3133226 29.5042973,22.2999677 29.5148627,22.2221613 C29.5252342,22.1460968 29.5457835,22.1021613 29.5780614,22.0869677 C29.5930856,22.0799032 29.6111147,22.0740968 29.6182876,22.0740968 C29.6259451,22.0740968 29.6363166,22.0533871 29.6437803,22.023 C29.6674313,21.9742258 29.6929241,21.9272903 29.7023263,21.873871 C29.7166721,21.8696129 29.7433279,21.8176452 29.7803554,21.8509355 L29.7803554,21.8099032 C29.7803554,21.7445806 29.8009047,21.7103226 29.8445234,21.702871 C29.9268174,21.6468387 29.9908885,21.575129 30.0608724,21.5024516 C30.0716317,21.4905484 30.0877221,21.4797097 30.0931502,21.4666452 C30.192601,21.5230645 30.294378,21.5590645 30.3214216,21.6822581 C30.3314055,21.7108065 30.3356704,21.7360645 30.330727,21.738871 C30.3137641,21.7484516 30.3328595,21.7594839 30.3765751,21.7654839 C30.4170921,21.7974194 30.4790307,21.815129 30.4902746,21.8590645 C30.4879483,21.8762903 30.4858158,21.9125806 30.4854281,21.9396774 C30.4847496,21.9885484 30.4849435,21.9889355 30.5126656,21.9862258 C30.5369952,21.9910645 30.560937,21.9954194 30.5849758,22.0007419 C30.5865267,22.028129 30.5898223,22.1209355 30.6023263,22.1685484 C30.64042,22.2066774 30.6130856,22.2640645 30.7056543,22.2431613 C30.7372536,22.2330968 30.8049111,22.2466452 30.8049111,22.2629032 C30.8049111,22.2675484 30.8153796,22.2795484 30.8281745,22.2896129 C30.8476575,22.3050968 30.8617124,22.3335484 30.879063,22.3929677 C30.8806139,22.3982903 30.9024233,22.4079677 30.9275283,22.4143548 C30.9852989,22.4640968 31.0442326,22.4923548 31.1000646,22.5297097 C31.1127625,22.5476129 31.1305008,22.5723871 31.1395153,22.5846774 C31.1821648,22.6579355 31.2030048,22.7006129 31.293538,22.7145484 L31.3612924,22.7145484 L31.4309855,22.8266129 C31.4560905,22.8266129 31.5127948,22.8869032 31.5198708,22.9211613 C31.532084,22.9590968 31.5464297,22.997129 31.5536026,23.036129 C31.5536026,23.0624516 31.5801616,23.0893548 31.5994507,23.0825806 C31.6581906,23.1048387 31.7152827,23.1057097 31.7397092,23.1753871 C31.7505654,23.2027742 31.7608401,23.2329677 31.762391,23.2423548 C31.7857512,23.2574516 31.8108562,23.2793226 31.8386753,23.2915161 C31.8757027,23.3012903 31.9233926,23.298 31.9517932,23.331871 C32.0164459,23.3814194 32.0825525,23.4349355 32.1570921,23.4762581 C32.1741519,23.5042258 32.2234895,23.5429355 32.2498546,23.5489355 C32.2969628,23.5841613 32.3561874,23.6098065 32.3662682,23.6734839 C32.4440065,23.7903871 32.55063,23.8560968 32.6452342,23.9675806 C32.6667528,23.9772581 32.7915024,24.0287419 32.7159935,24.0211935 C32.7155089,24.0238065 32.6545396,24.0336774 32.7086268,24.0623226 C32.7755089,24.1227097 32.8427787,24.1755484 32.9226494,24.2162903 C32.9611309,24.233129 33.0063005,24.2381613 33.0302423,24.2778387 C33.0650404,24.3160645 33.146462,24.4348065 33.1675929,24.4782581 C33.1791276,24.5019677 33.1943457,24.5197742 33.2030695,24.5197742 C33.2367044,24.6431613 33.2266236,24.7505806 33.1544103,24.8646774 L33.1544103,24.8646774 Z M38.7591276,25.0125484 C38.7395477,25.1308065 38.7347011,25.1467742 38.7184168,25.1467742 C38.7065913,25.166129 38.6923425,25.1996129 38.672084,25.2220645 C38.6687884,25.2341613 38.6591922,25.2503226 38.6508562,25.2579677 C38.6387399,25.2689032 38.6378675,25.2756774 38.6467851,25.290871 C38.6561874,25.3068387 38.6541519,25.3136129 38.6338934,25.3335484 C38.6206139,25.3466129 38.6017124,25.3702258 38.5917286,25.3859032 C38.5739903,25.4142581 38.5729241,25.4145484 38.4992569,25.4141613 C38.4582553,25.4139677 38.3881745,25.4187097 38.3433926,25.4246129 C38.2987076,25.4306129 38.253538,25.4335161 38.2429725,25.431 C38.2319225,25.4282903 38.217189,25.433129 38.2078837,25.4425161 C38.1919871,25.4584839 38.144588,25.4595484 37.8385784,25.4507419 C37.8250081,25.4503548 37.7395153,25.4518065 37.6484976,25.4540323 C37.4811955,25.4712581 37.3141842,25.4920645 37.1465913,25.5028065 C37.1398061,25.5077419 37.1063651,25.5138387 37.0723425,25.5165484 C37.0382229,25.5191613 36.9996446,25.5277742 36.986462,25.5356129 C36.9220032,25.5509032 36.8537641,25.5467419 36.7946365,25.5612581 C36.1156381,25.4833548 36.214895,25.2869032 36.2091761,25.2869032 C36.1985137,25.2869032 36.1984168,25.2692903 36.2031664,25.1985484 C36.207916,25.1266452 36.2035541,25.1072903 36.1910501,25.0925806 C36.1764136,25.0587097 36.1596446,25.0248387 36.1455897,24.9925161 C36.1356058,24.981871 36.1274637,24.9686129 36.1274637,24.9600968 C36.1274637,24.9515806 36.1187399,24.9431613 36.1092407,24.9423871 C36.0635864,24.9387097 36.0012601,24.9452903 35.9880775,24.9571935 C35.8183522,24.9318387 35.7065913,24.9862258 35.6072375,25.0464194 C35.6081099,25.0283226 35.6067528,25.0112903 35.6013247,25.0003548 C35.5904685,24.9786774 35.5924071,24.9743226 35.6262359,24.9453871 C35.6546365,24.9311613 35.6840065,24.9131613 35.7117286,24.9027097 C35.713958,24.8777419 35.7087237,24.8310968 35.7007754,24.8060323 C35.6962197,24.7914194 35.6962197,24.7795161 35.7007754,24.7795161 C35.7272375,24.7396452 35.7486591,24.6931935 35.7895638,24.6647419 C35.7895638,24.6418065 35.8362843,24.6073548 35.8586753,24.6138387 C35.8893053,24.6226452 35.9010339,24.5970968 35.8882391,24.5491935 C35.8819386,24.5255806 35.8755412,24.4787419 35.8740872,24.4450645 C35.9207108,24.3811935 35.9642326,24.3584516 35.9656866,24.2739677 C35.9621971,24.2406774 35.9638449,24.2381613 35.9964136,24.2275161 C36.015412,24.2214194 36.0431341,24.2139677 36.0580614,24.2110645 C36.0789015,24.207 36.085105,24.2006129 36.085105,24.1831935 C36.0702746,24.1352903 36.0421648,24.0983226 36.0452666,24.0438387 C36.0339257,24.0124839 36.0344103,24.0065806 36.0491438,23.993129 C36.0583522,23.9848065 36.0727948,23.9778387 36.0813247,23.9778387 C36.1010016,23.9776452 36.124168,23.9184194 36.1243619,23.8675161 C36.1244588,23.8376129 36.1302746,23.8241613 36.1504362,23.8072258 C36.1726333,23.7884516 36.1756381,23.780129 36.1710824,23.7490645 C36.167399,23.7240968 36.1575121,23.7069677 36.1392892,23.6939032 C36.1110824,23.6737742 36.1111793,23.676871 36.1348304,23.5825161 C36.1210662,23.5297742 36.1150565,23.4704516 36.0880129,23.4153871 C36.0814216,23.337871 36.0769628,23.3294516 36.0133764,23.2709032 C35.9534733,23.2159355 35.9175121,23.1545806 35.917609,23.1078387 C35.917706,23.0766774 35.8969628,23.0325484 35.8822294,23.0325484 C35.8611955,23.0325484 35.8656543,22.9936452 35.8881422,22.9809677 C35.9130533,22.9667419 35.9131502,22.9424516 35.8881422,22.9051935 C35.8763166,22.8743226 35.8652666,22.8436452 35.8527625,22.8131613 C35.8441357,22.8012581 35.8399677,22.7873226 35.8434572,22.7821935 C35.8512116,22.770871 35.7882068,22.6828065 35.7617447,22.6681935 C35.7130856,22.6015161 35.6563813,22.5346452 35.621874,22.4577097 C35.6031664,22.452 35.5983199,22.3886129 35.6152827,22.3715806 C35.6408724,22.3458387 35.6263328,22.2863226 35.5820355,22.2354194 C35.5542165,22.2035806 35.5113732,22.1027419 35.5200969,22.089871 C35.5227141,22.086 35.5162197,22.071871 35.5057512,22.0583226 C35.4878191,22.0229032 35.4742488,21.9843871 35.4490468,21.9533226 C35.4046527,21.9097742 35.3919548,21.876871 35.3941842,21.8116452 C35.3661712,21.717871 35.3404847,21.648871 35.267496,21.5711613 C35.267496,21.5619677 35.261874,21.5544194 35.2549919,21.5544194 C35.2405493,21.5544194 35.1788045,21.4722581 35.1788045,21.4530968 C35.1788045,21.4460323 35.1854927,21.4351935 35.1936349,21.429 C35.1897577,21.3915484 35.1872375,21.3714194 35.1847173,21.3420968 C35.2019709,21.3304839 35.2021648,21.3287419 35.1868498,21.3209032 C35.1777383,21.3162581 35.1630048,21.2892581 35.1540872,21.261 C35.1254927,21.1929677 35.1017447,21.1267742 35.0929241,21.0535161 C35.0887561,21.0506129 35.0725687,21.0251613 35.0569628,20.9969032 C35.0301131,20.9479355 35.0292407,20.9429032 35.0394184,20.8893871 C35.0453312,20.8585161 35.0528918,20.8121613 35.0562843,20.7862258 C35.0605493,20.7539032 35.0668498,20.7391935 35.0766397,20.7391935 C35.0843942,20.7391935 35.0932149,20.7462581 35.0962197,20.754871 C35.1075606,20.7876774 35.133538,20.8426452 35.1415832,20.8510645 C35.1466236,20.8563871 35.1521486,20.8520323 35.1556381,20.8398387 C35.162811,20.8149677 35.1788045,20.8136129 35.1788045,20.8378065 C35.1788045,20.8592903 35.1939257,20.8615161 35.2025525,20.8412903 C35.2073021,20.8299677 35.211664,20.8290968 35.2224233,20.8372258 C35.2333764,20.8455484 35.2375444,20.8439032 35.2426817,20.8292903 C35.2514055,20.8042258 35.2895961,20.8051935 35.3021002,20.8308387 C35.3130533,20.8532903 35.3759612,20.8700323 35.3872052,20.8534839 C35.3947658,20.8424516 35.4080452,20.8422581 35.5900808,20.8516452 C35.7045557,20.8574516 35.7206462,20.8601613 35.7206462,20.8738065 C35.7206462,20.9100968 35.7825848,20.9169677 35.7926656,20.8817419 C35.7967367,20.8677097 35.8071082,20.8646129 35.8502423,20.8640323 C35.8792246,20.8636452 35.9261389,20.8603548 35.9545396,20.8566774 C36.0031987,20.8503871 36.0052342,20.850871 35.9905977,20.8655806 C35.9820679,20.8741935 35.9766397,20.8886129 35.9786753,20.8976129 C35.9816801,20.9107742 35.9907916,20.9135806 36.0257835,20.9120323 C36.0858805,20.9095161 36.1235864,20.8934516 36.1307593,20.8675161 C36.185525,20.8492258 36.2196446,20.8184516 36.287399,20.8557097 C36.301357,20.8557097 36.3033926,20.8613226 36.2988368,20.886871 C36.2927302,20.9212258 36.3018417,20.9313871 36.3310178,20.9229677 C36.35021,20.9174516 36.3806462,20.8725484 36.3806462,20.8498065 C36.3806462,20.8407097 36.4000323,20.8378065 36.4601292,20.8378065 L36.5395153,20.8378065 L36.5364136,20.8669355 C36.5336995,20.892871 36.5363166,20.8963548 36.5604523,20.898871 C36.5796446,20.9009032 36.5895315,20.8969355 36.5939903,20.8854194 C36.6049435,20.8574516 36.6290792,20.8378065 36.6525363,20.8378065 C36.6649435,20.8378065 36.6817124,20.8291935 36.6897577,20.8186452 C36.699063,20.8065484 36.7104039,20.8016129 36.7205816,20.8051935 C36.7340549,20.8099355 36.7356058,20.8190323 36.7299838,20.8601613 C36.7222294,20.9161935 36.7285299,20.9202581 36.7790307,20.8918065 C36.8062682,20.8766129 36.8152827,20.8756452 36.8476575,20.8846452 C36.877706,20.907871 36.9108562,20.9277097 36.9406139,20.9535484 C36.9746365,20.9497742 37.0052666,20.9606129 37.0418094,20.9423226 C37.0654604,20.9466774 37.07021,20.9445484 37.07021,20.9299355 C37.07021,20.9109677 37.0901777,20.8917097 37.1285622,20.8736129 C37.1491115,20.8639355 37.1542488,20.8647097 37.1656866,20.8789355 C37.1730533,20.8880323 37.1867205,20.895871 37.1960258,20.8963548 C37.2231664,20.8976129 37.2770598,20.9214194 37.2770598,20.9319677 C37.2770598,20.9373871 37.2722132,20.9460968 37.2662036,20.9516129 C37.2583522,20.9587742 37.2590307,20.9681613 37.2687237,20.9862581 C37.2863651,21.0192581 37.3044911,21.0233226 37.3155412,20.9968065 C37.3292084,20.9641935 37.3712763,20.9425161 37.4025848,20.952 C37.4387399,20.9629355 37.452601,20.9852903 37.4370921,21.0078387 C37.4175121,21.0363871 37.4220679,21.0528387 37.4494992,21.0528387 C37.4923425,21.0198387 37.5409047,20.9650645 37.6033279,20.9607097 C37.6129241,20.9693226 37.5969305,21.0571935 37.5764782,21.1084839 C37.5609693,21.1473871 37.5670759,21.1692581 37.593538,21.1692581 C37.6187399,21.1692581 37.6484976,21.1226129 37.6563489,21.0707419 C37.6644911,21.0168387 37.7163489,20.967 37.7551212,20.9759032 C37.7782876,20.981129 37.7870113,20.9981613 37.7731502,21.0108387 C37.7596769,21.0230323 37.7308885,21.1124516 37.7305977,21.1428387 C37.7301131,21.1875484 37.7434895,21.1966452 37.7849758,21.1795161 C37.8146365,21.1672258 37.8189015,21.1614194 37.8189015,21.1327742 C37.8189015,21.1147742 37.8324717,21.072871 37.8489499,21.0396774 C37.8499192,20.9207419 37.8297577,20.8812581 37.9209693,20.9140645 C37.9455897,20.9292581 37.9756381,20.9319677 37.9913409,20.9575161 C37.9831018,20.9868387 37.9532472,21.0666774 37.9705977,21.1146774 C37.9962843,21.134129 38.0356381,21.1053871 38.0356381,21.0671613 C38.0356381,21.0506129 38.0423263,21.0320323 38.0503716,21.0259355 C38.0765428,20.9868387 38.1030048,20.9388387 38.1333441,20.9184194 C38.1491438,20.9184194 38.1685299,20.9161935 38.1763813,20.9133871 C38.2072052,20.9026452 38.204685,20.9557742 38.1686268,21.0777097 C38.1594184,21.1085806 38.154475,21.1398387 38.1574798,21.1470968 C38.1748304,21.188129 38.2333764,21.1223226 38.2519871,21.0409355 C38.2765105,20.9455161 38.3730533,20.8940323 38.4789015,20.9193871 C38.5033279,20.9243226 38.5364782,20.9308065 38.5527625,20.9337097 C38.5854281,20.9396129 38.6463974,20.9799677 38.6463974,20.9957419 C38.6463974,21.0013548 38.6354443,21.0124839 38.6221648,21.0204194 C38.5870759,21.0412258 38.5774798,21.0626129 38.5865913,21.0992903 C38.5749596,21.1787419 38.5489822,21.282871 38.5569305,21.3154839 C38.5483037,21.3212903 38.5405493,21.3320323 38.53958,21.3394839 C38.5332795,21.3925161 38.5254281,21.4274516 38.5159289,21.444871 C38.5076898,21.4600645 38.5078837,21.4679032 38.5165105,21.4758387 C38.5229079,21.4816452 38.5281422,21.4972258 38.5281422,21.5104839 C38.5092407,21.5238387 38.4858805,21.5502581 38.4592246,21.5589677 C38.4592246,21.5664194 38.4680452,21.5724194 38.4791922,21.5724194 C38.4790953,21.582871 38.5117609,21.6371613 38.4789015,21.6732581 C38.4789015,21.6869032 38.4750242,21.705 38.4701777,21.7136129 C38.4473021,21.7547419 38.4296607,21.7985806 38.4296607,21.8140645 C38.4296607,21.8362258 38.444588,21.8440645 38.4978029,21.849871 C38.5379321,21.8542258 38.5687561,21.8769677 38.5344426,21.8769677 C38.5121486,21.8769677 38.5086591,21.8876129 38.5183522,21.9264194 C38.5252342,22.0411935 38.5022617,22.1026452 38.4950889,22.2063871 C38.4831664,22.2313548 38.5010985,22.2544839 38.5194184,22.2377419 C38.5314378,22.2269032 38.557706,22.232129 38.557706,22.2454839 C38.557706,22.2499355 38.546559,22.2574839 38.5330856,22.262129 C38.5136995,22.2688065 38.5083683,22.2770323 38.5082714,22.3000645 C38.5082714,22.316129 38.501874,22.3510645 38.4941195,22.3774839 C38.4816155,22.4201613 38.4817124,22.4280968 38.4952827,22.446871 C38.4912116,22.4518065 38.4700808,22.485 38.4506947,22.5017419 C38.4521486,22.5104516 38.4479806,22.5263226 38.4414863,22.5370645 C38.4633926,22.6306452 38.4497254,22.7004194 38.5010016,22.8131613 C38.50042,22.8229355 38.5075929,22.8491613 38.5168013,22.8713226 C38.5343457,22.9132258 38.536769,22.9654839 38.524168,23.0296452 C38.518643,23.0579032 38.5207754,23.0725161 38.5330856,23.0895484 C38.5263974,23.1392903 38.5129241,23.2156452 38.5303716,23.2699355 C38.5372536,23.274871 38.5435541,23.2910323 38.5443296,23.3058387 C38.5460743,23.3396129 38.5672052,23.4193548 38.5776737,23.4312581 C38.5820355,23.4361935 38.5817447,23.4583548 38.5769952,23.4805161 C38.5615832,23.5529032 38.5649758,23.5783548 38.5913409,23.5892903 C38.6076252,23.6425161 38.6335057,23.6898387 38.648336,23.7505161 C38.6475606,23.8317097 38.6363166,23.9222903 38.6256543,23.934 C38.6188691,23.9415484 38.6160582,23.9705806 38.6185784,24.0100645 C38.6216801,24.0597097 38.6268174,24.0772258 38.6418417,24.0885484 C38.6592892,24.1017097 38.6610339,24.1140968 38.6599677,24.2157097 C38.6592892,24.2775484 38.6559935,24.3360968 38.652601,24.3457742 C38.6528918,24.3732581 38.6620032,24.4034516 38.6536672,24.4288065 C38.6387399,24.4424516 38.6577383,24.4964516 38.6787722,24.500129 C38.6795477,24.510871 38.6884653,24.5243226 38.6811955,24.5322581 C38.6602585,24.537 38.6561874,24.5431935 38.6561874,24.5700968 C38.6617124,24.6080323 38.7058158,24.6086129 38.6699515,24.6653226 C38.6709208,24.7096452 38.6725687,24.7124516 38.6980614,24.7151613 C38.7299515,24.7184516 38.7290792,24.7151613 38.7098869,24.756871 C38.6972859,24.7842581 38.6965105,24.7985806 38.705525,24.8381613 C38.7034895,24.8714516 38.7115347,24.9046452 38.6995153,24.9369677 C38.7064943,24.9536129 38.7349919,24.9534194 38.7349919,24.9367742 C38.7349919,24.9203226 38.747496,24.9131613 38.7619386,24.9212903 C38.7701777,24.9259355 38.7694992,24.9496452 38.7591276,25.0125484 L38.7591276,25.0125484 Z M50.0276898,25.0924839 C50.0154766,25.1417419 50.0131502,25.1847097 49.9751535,25.2191613 C49.9751535,25.2297097 49.9683683,25.2363871 49.957609,25.2363871 C49.9404523,25.2363871 49.8766721,25.3024839 49.8766721,25.3201935 C49.8766721,25.3440968 49.8425525,25.3618065 49.7966074,25.3618065 C49.7542488,25.3618065 49.7475606,25.3646129 49.734475,25.3876452 C49.7163489,25.4193871 49.7036511,25.4243226 49.6106947,25.4352581 C49.4774152,25.451129 49.4492084,25.4533548 49.3509208,25.4563548 C49.2975121,25.458 49.2398384,25.4638065 49.2228756,25.4694194 C49.2059128,25.4749355 49.1587076,25.4830645 49.1180937,25.4875161 C49.0774798,25.4919677 49.0242649,25.4997097 48.9999354,25.5047419 C48.9479806,25.5139355 48.8941842,25.5191613 48.8460097,25.5419032 C48.820517,25.5536129 48.7909532,25.5566129 48.7707916,25.5764516 C48.7169952,25.6040323 48.6631987,25.632871 48.6065913,25.652129 C48.6043619,25.6546452 48.5987399,25.6575484 48.5920517,25.6605484 L48.4679806,25.6520323 C48.5908885,25.5353226 48.6916963,25.4369032 48.4499515,25.6507742 L47.6921486,25.5989032 L47.667916,25.5665806 C47.633021,25.5232258 47.6011309,25.5163548 47.58,25.5459677 C47.5670113,25.5642581 47.5579968,25.5660968 47.5376414,25.5606774 C47.5111793,25.5536129 47.5006139,25.5474194 47.455832,25.4870323 L47.3346688,25.44 L47.1832633,25.4517097 L47.1650404,25.4193871 L47.1469144,25.3899677 L47.101454,25.3516452 L46.9894023,25.4075806 L46.940937,25.4459032 L46.8984814,25.4459032 L46.8106624,25.3810645 L46.7137318,25.3134194 L46.6350242,25.3663548 L46.5259774,25.3751613 L46.4199354,25.2220645 L46.2957674,25.1956452 L46.2775444,25.2309677 L46.2169628,25.3045161 L46.1746042,25.328129 L46.0776737,25.2662903 L45.9413893,25.3075161 L45.8020032,25.2426774 L45.7020679,25.1338065 L45.6142488,25.1013871 L45.5112116,25.1338065 L45.4355089,25.0807742 L45.3719225,24.9866129 L45.2235218,25.1249032 L45.1538288,25.0895806 L45.0720194,25.0572581 L44.9993215,25.1013871 L44.9053958,25.281 L44.5752504,25.3104194 L44.5480129,25.122 L44.5237803,25.0366452 L44.4723102,25.0925806 L44.3905008,25.0925806 L44.1178352,25.0601613 L44.0784814,24.9600968 L44.0391276,24.854129 L43.9634249,24.8188065 L43.8240388,25.0013226 L43.7725687,25.0336452 L43.7241034,25.0278387 L43.6816478,24.966 L43.6089499,24.918871 L43.5060097,24.9807097 L43.4060743,25.0895806 L43.3606139,25.1279032 L43.2545719,25.1514194 L43.233441,25.0954839 L43.2273344,25.0013226 L43.2061066,24.8688387 L43.1334087,24.854129 L43.0123425,24.9600968 L42.80937,25.1190968 L42.8002585,25.0219355 L42.7426817,24.8923548 L42.666979,24.9423871 L42.612504,25.0513548 L42.506462,25.0013226 L42.418643,24.9129677 L42.3731826,24.8923548 L42.354378,24.8984516 C42.357189,24.8714516 42.3627141,24.8617742 42.3797738,24.8540323 C42.4072052,24.8416452 42.4239742,24.8149355 42.4329887,24.7696452 C42.4386107,24.7411935 42.4442326,24.7361613 42.4810662,24.7262903 C42.5265267,24.7140968 42.5708239,24.6811935 42.5925363,24.6433548 C42.6157997,24.6205161 42.6481745,24.6041613 42.6618417,24.5754194 C42.6633926,24.5474516 42.6912116,24.5219032 42.7280452,24.5145484 C42.7651696,24.5070968 42.823231,24.4523226 42.823231,24.4246452 C42.823231,24.3928065 42.8336995,24.3763548 42.8541519,24.3763548 C42.8898223,24.4124516 42.9328595,24.4677097 42.9759935,24.4510645 C42.9833603,24.4419677 42.9923748,24.4147742 42.9960582,24.3905806 C43.00042,24.3623226 43.0110824,24.3390968 43.0259128,24.3255484 C43.05063,24.3030968 43.0742811,24.2393226 43.0655574,24.2186129 C43.0783522,24.2148387 43.1437803,24.1520323 43.2018417,24.1801935 C43.2165751,24.174871 43.2336349,24.1692581 43.2477868,24.1636452 C43.2483683,24.159871 43.2505977,24.1377097 43.2528271,24.1142903 C43.2373183,24.0940645 43.2077544,24.0540968 43.2021325,24.0482903 C43.213958,24.044129 43.2161874,24.0356129 43.2115347,24.0125806 C43.204168,23.9769677 43.2235541,23.9647742 43.2622294,23.9808387 C43.2812278,23.9886774 43.2862682,23.9974839 43.2862682,24.0232258 C43.3006139,24.0322258 43.3140872,24.0734516 43.3565428,24.0670645 C43.377189,24.0795484 43.3963813,24.0897097 43.3991922,24.0897097 C43.451147,24.0472258 43.5040711,24.0045484 43.547399,23.9549032 C43.5636834,23.9104839 43.5635864,23.8652903 43.5471082,23.8030645 C43.5361551,23.7613548 43.5606785,23.7463548 43.6571244,23.7359032 L43.7442649,23.7265161 L43.7502746,23.6698065 C43.756769,23.6081613 43.7687884,23.5940323 43.8092084,23.6007097 C43.8317932,23.6043871 43.8357674,23.6010968 43.8437157,23.571871 C43.8522456,23.540129 43.8546688,23.5386774 43.8986753,23.5360645 C43.9491761,23.5330645 43.9675929,23.5170968 43.9800969,23.4652258 C44.0144103,23.4276774 44.0560905,23.4028065 44.0737318,23.343871 C44.0903069,23.3106774 44.1094023,23.2830968 44.1161874,23.2827097 C44.1378998,23.2813548 44.1872375,23.274 44.1989661,23.2703226 C44.2051696,23.2683871 44.2133118,23.2502903 44.2170921,23.2302581 C44.2252342,23.1863226 44.2531502,23.1645484 44.2866882,23.1761613 C44.3256543,23.1817742 44.3778998,23.156129 44.3895315,23.2046129 C44.4661066,23.1624194 44.5484006,23.154 44.5849435,23.0716452 C44.5945396,23.0409677 44.6031664,23.0320645 44.6341842,23.0208387 C44.6579321,23.012129 44.6912763,22.9859032 44.7252019,22.9490323 C44.7937318,22.8895161 44.8695315,22.8990968 44.8926979,22.8268065 C44.9307916,22.7679677 44.966462,22.7447419 45.0002908,22.7029355 C45.0002908,22.6560968 45.048853,22.6123548 45.1041034,22.6092581 C45.1376414,22.6215484 45.1669144,22.634129 45.2026817,22.6454516 C45.2050081,22.6434194 45.20937,22.6117742 45.2124717,22.5750968 C45.2173183,22.5169355 45.2213893,22.506 45.2446527,22.4883871 C45.2610339,22.476 45.2844911,22.4682581 45.3060097,22.4682581 C45.3407108,22.4492903 45.3845234,22.4256774 45.4225202,22.4173548 C45.4539257,22.3965484 45.4932795,22.3695484 45.5298223,22.3443871 C45.5437803,22.3109032 45.5607431,22.3049032 45.6311147,22.3084839 C45.7184491,22.3130323 45.7391922,22.3279355 45.7210662,22.3733226 C45.7047819,22.4144516 45.7020679,22.4873226 45.715832,22.5139355 C45.7219386,22.5257419 45.7383199,22.5596129 45.752084,22.589129 C45.7723425,22.6326774 45.7829079,22.6445806 45.8074313,22.6514516 C45.8236187,22.6754516 45.8408724,22.7006129 45.8573506,22.7253871 C45.8541519,22.7452258 45.8480452,22.7630323 45.8435864,22.8106452 C45.8502746,22.8643548 45.8638449,22.8892258 45.8862359,22.8892258 C45.9079483,22.8899032 45.9631018,22.8064839 45.9950889,22.8923226 C45.9947011,22.9004516 45.9954766,22.962871 45.9900485,23.0057419 C45.9972213,23.0610968 46.0119548,23.1124839 46.0246527,23.1265161 C46.1094669,23.1641613 46.1560905,23.1837097 46.1701454,23.2831935 C46.1828433,23.2926774 46.1922456,23.3097097 46.1922456,23.3232581 C46.2025202,23.3435806 46.2159935,23.3598387 46.2218094,23.3823871 C46.2218094,23.4334839 46.2366397,23.4512903 46.2827787,23.4557419 C46.3061389,23.4579677 46.3307593,23.4559355 46.3374475,23.4512903 C46.3485945,23.4623226 46.3812601,23.4835161 46.3932795,23.5068387 C46.4087884,23.5425484 46.4262359,23.5765161 46.4363166,23.6136774 C46.4549273,23.6153226 46.5517609,23.6406774 46.6024556,23.6347742 C46.6357027,23.6759032 46.6472375,23.7288387 46.7157674,23.7414194 C46.7252666,23.753129 46.74,23.7697742 46.748336,23.7783871 C46.7600646,23.8045161 46.756769,23.8480645 46.7836187,23.8567742 C46.795832,23.8567742 46.8071729,23.8480645 46.8128918,23.8344194 C46.8337318,23.7845806 46.9168982,23.8294839 46.9453958,23.9059355 C46.9555735,23.933129 46.967399,23.9552903 46.9717609,23.9552903 C46.9760258,23.9552903 46.9875606,23.9629355 46.9972536,23.9722258 C47.0359289,23.9866452 47.0739257,24.0075484 47.1157027,24.0163548 C47.1463328,24.0296129 47.148853,24.0293226 47.1731826,24.0085161 C47.1981906,23.987129 47.1989661,23.9870323 47.2127302,24.0040645 C47.2203877,24.0136452 47.2266882,24.0301935 47.2266882,24.0407419 C47.2266882,24.0513871 47.2344426,24.0664839 47.2440388,24.0743226 C47.2637157,24.0905806 47.3270113,24.1054839 47.3702423,24.1040323 C47.3959289,24.1032581 47.3990307,24.0999677 47.3990307,24.0745161 C47.3990307,24.0417097 47.4156058,24.0222581 47.4371244,24.0298065 C47.4487561,24.0337742 47.4507916,24.0452903 47.4465267,24.0826452 C47.4414863,24.1269677 47.4433279,24.1325806 47.4718255,24.1603548 C47.5467528,24.1931613 47.6130533,24.2430968 47.6952504,24.2055484 C47.7099838,24.1907419 47.7205493,24.188129 47.7482714,24.192871 C47.8059451,24.2027419 47.8296931,24.2191935 47.8466559,24.2609032 L47.8625525,24.3001935 L48.0323748,24.3274839 C48.068433,24.3499355 48.10042,24.372871 48.1396769,24.3907742 C48.1657512,24.3996774 48.1934733,24.4126452 48.2012278,24.4195161 C48.2996123,24.4080968 48.347496,24.4355806 48.4285299,24.4615161 C48.4653635,24.456871 48.4831018,24.4595806 48.5132472,24.4742903 C48.5478514,24.4829032 48.5933118,24.489 48.6183199,24.5100968 C48.6229725,24.5260645 48.6302423,24.5270323 48.7184491,24.5221935 C48.7816478,24.5188065 48.831567,24.5209355 48.8674313,24.5287742 C48.9078514,24.5375806 48.9268498,24.5380645 48.9433279,24.5305161 C48.9791922,24.5143548 49.039483,24.5024516 49.0572213,24.5081613 C49.0663328,24.5110645 49.0811632,24.5192903 49.0901777,24.5262581 C49.1026817,24.5359355 49.1114055,24.5367097 49.1264297,24.5293548 C49.1564782,24.5148387 49.2461389,24.5167742 49.2461389,24.5320645 C49.2461389,24.5577097 49.2744426,24.5685484 49.3104039,24.5567419 C49.3376414,24.5477419 49.3488853,24.5480323 49.3712763,24.5583871 C49.3863974,24.5652581 49.417609,24.5735806 49.4405816,24.5767742 C49.5401292,24.6225484 49.640937,24.6147097 49.7447496,24.6858387 C49.7507593,24.693 49.7608401,24.6989032 49.7672375,24.6989032 C49.773538,24.6989032 49.7820679,24.7059677 49.786042,24.7145806 C49.8017447,24.7482581 49.8395477,24.797129 49.8467205,24.7931613 C49.8508885,24.7908387 49.8622294,24.7968387 49.8719225,24.8066129 C49.8816155,24.8162903 49.897706,24.8243226 49.9076898,24.8243226 C49.9127302,24.8431935 49.8979968,24.8840323 49.9293053,24.9049355 C49.9517932,24.9116129 49.9610016,24.9664839 49.9820355,24.9206129 C49.9918255,24.9005806 49.9921163,24.9006774 50.0279806,24.9332903 L50.0276898,25.0924839 L50.0276898,25.0924839 Z" id="Fill-2"></path>
                    </g>
                </g>
            </g>
        </g>
    </g>
</svg>