<?xml version="1.0" encoding="UTF-8" standalone="no"?>
<svg width="20px" height="20px" viewBox="0 0 20 20" version="1.1" xmlns="http://www.w3.org/2000/svg" xmlns:xlink="http://www.w3.org/1999/xlink" xmlns:sketch="http://www.bohemiancoding.com/sketch/ns">
    <!-- Generator: Sketch 3.2.2 (9983) - http://www.bohemiancoding.com/sketch -->
    <title>Imported Layers</title>
    <desc>Created with Sketch.</desc>
    <defs></defs>
    <g id="FINAL" stroke="none" stroke-width="1" fill="none" fill-rule="evenodd" sketch:type="MSPage">
        <g id="Home" sketch:type="MSArtboardGroup" transform="translate(-654.000000, -3462.000000)" fill="#FFFFFF">
            <g id="Fill-1-+-Fill-2-+-Imported-Layers" sketch:type="MSLayerGroup" transform="translate(654.000000, 3461.000000)">
                <path d="M17.5612826,9.39770341 L15.8331277,9.39770341 C15.9590476,9.88647627 16.033407,10.3971711 16.033407,10.9252282 C16.033407,14.2991113 13.2989448,17.0333982 9.92558778,17.0333982 C6.55240619,17.0333982 3.81776854,14.2991113 3.81776854,10.9252282 C3.81776854,10.3971711 3.8924787,9.88647627 4.01839866,9.39770341 L2.29006838,9.39770341 L2.29006838,17.7969852 C2.29006838,18.2180629 2.63205154,18.5598707 3.0543569,18.5598707 L16.796994,18.5598707 C17.2192994,18.5598707 17.5612826,18.2180629 17.5612826,17.7969852 L17.5612826,9.39770341 L17.5612826,9.39770341 Z M17.5612826,4.05347118 C17.5612826,3.6320427 17.2192994,3.29005954 16.796994,3.29005954 L14.5069345,3.29005954 C14.0851553,3.29005954 13.7435229,3.6320427 13.7435229,4.05347118 L13.7435229,6.34440761 C13.7435229,6.76583608 14.0851553,7.10781925 14.5069345,7.10781925 L16.796994,7.10781925 C17.2192994,7.10781925 17.5612826,6.76583608 17.5612826,6.34440761 L17.5612826,4.05347118 L17.5612826,4.05347118 Z M9.92558778,7.10781925 C7.81704238,7.10781925 6.10800346,8.81668279 6.10800346,10.9252282 C6.10800346,13.0334228 7.81704238,14.7431633 9.92558778,14.7431633 C12.0341332,14.7431633 13.7435229,13.0334228 13.7435229,10.9252282 C13.7435229,8.81668279 12.0341332,7.10781925 9.92558778,7.10781925 L9.92558778,7.10781925 Z M17.5612826,20.8511579 L2.29006838,20.8511579 C1.02543219,20.8511579 8.83454663e-06,19.8253838 8.83454663e-06,18.5598707 L8.83454663e-06,3.29005954 C8.83454663e-06,2.02524798 1.02543219,1 2.29006838,1 L17.5612826,1 C18.8260941,1 19.8513421,2.02524798 19.8513421,3.29005954 L19.8513421,18.5598707 C19.8513421,19.8253838 18.8260941,20.8511579 17.5612826,20.8511579 L17.5612826,20.8511579 Z" id="Imported-Layers" sketch:type="MSShapeGroup"></path>
            </g>
        </g>
    </g>
</svg>