<?xml version="1.0" encoding="UTF-8" standalone="no"?>
<svg width="45px" height="44px" viewBox="0 0 45 44" version="1.1" xmlns="http://www.w3.org/2000/svg" xmlns:xlink="http://www.w3.org/1999/xlink" xmlns:sketch="http://www.bohemiancoding.com/sketch/ns">
    <!-- Generator: Sketch 3.2.2 (9983) - http://www.bohemiancoding.com/sketch -->
    <title>Fill 1</title>
    <desc>Created with Sketch.</desc>
    <defs></defs>
    <g id="FINAL" stroke="none" stroke-width="1" fill="none" fill-rule="evenodd" sketch:type="MSPage">
        <g id="Home" sketch:type="MSArtboardGroup" transform="translate(-121.000000, -40.000000)" fill="#FFFFFF">
            <path d="M164.541144,47.9478645 C165.026916,47.9478645 165.421,47.554273 165.421,47.0684956 L165.421,45.3102549 C165.421,44.824229 165.026916,44.4306375 164.541144,44.4306375 C162.597063,44.4306375 161.021224,42.8560231 161.021224,40.9131621 L161.021224,40.8796173 C161.021224,40.39384 160.62714,40 160.141368,40 L158.381159,40 C157.895387,40 157.501303,40.39384 157.501303,40.8796173 L157.501303,40.9131621 C157.501303,42.8560231 155.924967,44.4306375 153.981383,44.4306375 C152.037301,44.4306375 150.460965,42.8560231 150.460965,40.9131621 L150.460965,40.8796173 C150.460965,40.39384 150.067378,40 149.581109,40 L147.821398,40 C147.335129,40 146.941045,40.39384 146.941045,40.8796173 L146.941045,40.9131621 C146.941045,42.8560231 145.365206,44.4306375 143.421124,44.4306375 C141.477043,44.4306375 139.901204,42.8560231 139.901204,40.9131621 L139.901204,40.8796173 C139.901204,40.39384 139.50712,40 139.021099,40 L137.261139,40 C136.775119,40 136.381283,40.39384 136.381283,40.8796173 L136.381283,40.9131621 C136.381283,42.8560231 134.805196,44.4306375 132.861114,44.4306375 C130.917033,44.4306375 129.341194,42.8560231 129.341194,40.9131621 L129.341194,40.8796173 C129.341194,40.39384 128.94711,40 128.461089,40 L126.701129,40 C126.215109,40 125.821025,40.39384 125.821025,40.8796173 L125.821025,40.9131621 C125.821025,42.8560231 124.245186,44.4306375 122.301104,44.4306375 L122.300856,44.430886 C121.814836,44.430886 121.421,44.8244775 121.421,45.3102549 L121.421,47.0687441 C121.421,47.554273 121.814836,47.948113 122.300856,47.948113 L122.303589,47.948113 C124.246428,47.9493554 125.821025,49.5237213 125.821025,51.4653399 C125.821025,53.407704 124.245186,54.9825669 122.301104,54.9825669 L122.300856,54.9825669 C121.814836,54.9825669 121.421,55.3761584 121.421,55.8619358 L121.421,57.620425 C121.421,58.1062024 121.814836,58.4997939 122.300856,58.4997939 L122.303589,58.4997939 C124.246428,58.5010363 125.821025,60.0751537 125.821025,62.0167724 C125.821025,63.9596334 124.245186,65.5344963 122.301104,65.5344963 L122.300856,65.5344963 C121.814836,65.5344963 121.421,65.9283363 121.421,66.4138652 L121.421,68.1726029 C121.421,68.6578833 121.814836,69.0517233 122.300856,69.0517233 L122.303589,69.0517233 C124.246428,69.0532141 125.821025,70.6273316 125.821025,72.5689502 C125.821025,74.5113143 124.245186,76.0859287 122.301104,76.0859287 L122.300856,76.0859287 C121.814836,76.0859287 121.421,76.4797687 121.421,76.9657945 L121.421,78.7242838 C121.421,79.2100612 121.814836,79.6034042 122.300856,79.6034042 L122.303589,79.6034042 C124.246428,79.604895 125.821025,81.178764 125.821025,83.1203827 C125.821025,83.6064085 126.215109,84 126.701129,84 L128.461089,84 C128.94711,84 129.341194,83.6064085 129.341194,83.1203827 C129.341194,81.1785156 130.917033,79.6034042 132.861114,79.6034042 C134.805196,79.6034042 136.381283,81.1785156 136.381283,83.1203827 C136.381283,83.6064085 136.775119,84 137.261139,84 L139.021099,84 C139.50712,84 139.901204,83.6064085 139.901204,83.1203827 C139.901204,81.1785156 141.477043,79.6034042 143.421124,79.6034042 C145.365206,79.6034042 146.941045,81.1785156 146.941045,83.1203827 C146.941045,83.6064085 147.335129,84 147.821398,84 L149.581109,84 C150.067378,84 150.460965,83.6064085 150.460965,83.1203827 C150.460965,81.1785156 152.037301,79.6034042 153.981383,79.6034042 C155.924967,79.6034042 157.501303,81.1785156 157.501303,83.1203827 C157.501303,83.6064085 157.895387,84 158.381159,84 L160.141368,84 C160.62714,84 161.021224,83.6064085 161.021224,83.1203827 C161.021224,81.1785156 162.597063,79.6034042 164.541144,79.6034042 C165.026916,79.6034042 165.421,79.2095642 165.421,78.7242838 L165.421,76.9650491 C165.421,76.4797687 165.026916,76.0859287 164.541144,76.0859287 C162.597063,76.0859287 161.021224,74.5113143 161.021224,72.5689502 C161.021224,70.6263377 162.597063,69.0517233 164.541144,69.0517233 C165.026916,69.0517233 165.421,68.6578833 165.421,68.1721059 L165.421,66.4138652 C165.421,65.9278393 165.026916,65.5344963 164.541144,65.5344963 C162.597063,65.5344963 161.021224,63.9596334 161.021224,62.0167724 C161.021224,60.0744083 162.597063,58.4997939 164.541144,58.4997939 C165.026916,58.4997939 165.421,58.1059539 165.421,57.620425 L165.421,55.8616873 C165.421,55.3761584 165.026916,54.9825669 164.541144,54.9825669 C162.597063,54.9825669 161.021224,53.407704 161.021224,51.4653399 C161.021224,49.5227274 162.597063,47.9478645 164.541144,47.9478645 L164.541144,47.9478645 Z M132.861363,76.0859287 L132.861363,76.0859287 C130.917281,76.0859287 129.341194,74.5110658 129.341194,72.5689502 L129.341194,51.4653399 C129.341194,49.5229759 130.917281,47.948113 132.861363,47.948113 L132.861363,47.9478645 L153.980886,47.9478645 L153.980886,47.948113 C155.924967,47.948113 157.500806,49.5229759 157.500806,51.4653399 L157.501303,51.4653399 L157.501303,72.5684533 L157.500806,72.5684533 C157.500806,74.5110658 155.924967,76.0859287 153.980886,76.0859287 L132.861363,76.0859287 L132.861363,76.0859287 Z M148.701005,62.0003727 C148.701005,59.0864539 146.337246,56.724408 143.420876,56.724408 C140.504754,56.724408 138.140995,59.0864539 138.140995,62.0003727 C138.140995,64.9142915 140.504754,67.2760889 143.420876,67.2760889 C146.337246,67.2760889 148.701005,64.9142915 148.701005,62.0003727 M153.144762,51.4993816 L151.336845,51.4993816 C150.865734,51.4993816 150.484322,51.870113 150.461462,52.3355151 L150.461462,54.1419608 C150.461462,54.612581 150.832438,54.993997 151.298083,55.0168571 L153.105502,55.0168571 C153.576614,55.0168571 153.958026,54.6461257 153.981383,54.1809721 L153.981383,52.3745263 C153.981383,51.9036577 153.610159,51.5224902 153.144762,51.4993816" id="Fill-1" sketch:type="MSShapeGroup"></path>
        </g>
    </g>
</svg>