<?xml version="1.0" encoding="UTF-8" standalone="no"?>
<svg width="54px" height="22px" viewBox="0 0 54 22" version="1.1" xmlns="http://www.w3.org/2000/svg" xmlns:xlink="http://www.w3.org/1999/xlink" xmlns:sketch="http://www.bohemiancoding.com/sketch/ns">
    <!-- Generator: Sketch 3.2.2 (9983) - http://www.bohemiancoding.com/sketch -->
    <title>Imported Layers</title>
    <desc>Created with Sketch.</desc>
    <defs></defs>
    <g id="FINAL" stroke="none" stroke-width="1" fill="none" fill-rule="evenodd" sketch:type="MSPage">
        <g id="Home" sketch:type="MSArtboardGroup" transform="translate(-121.000000, -612.000000)" fill="#FFFFFF">
            <g id="Imported-Layers" sketch:type="MSLayerGroup" transform="translate(121.000000, 612.000000)">
                <path d="M53.6744595,13.1472 L47.4059459,13.1472 C47.4832432,13.9128 47.7121622,14.2252 48.1075676,14.5581333 C48.4747297,14.8734667 48.9786486,15.0245333 49.7085135,15.0245333 C50.9289189,15.0245333 52.0125676,14.7532 52.9431081,14.256 L53.3533784,16.8138667 C52.407973,17.4298667 50.9140541,17.8068 49.2982432,17.8068 C47.5441892,17.8068 46.187027,17.3550667 45.2416216,16.4530667 C44.1891892,15.4454667 43.657027,13.8658667 43.657027,11.7582667 C43.657027,7.99773333 45.6548649,5.65106667 48.8716216,5.65106667 C50.4413514,5.65106667 51.6781081,6.19226667 52.5016216,7.24533333 C53.3072973,8.28226667 53.7205405,9.988 53.7205405,11.8521333 C53.7205405,12.1234667 53.6893243,12.9653333 53.6744595,13.1472 L53.6744595,13.1472 Z M48.8091892,8.17666667 C47.9410811,8.17666667 47.4832432,9.19013333 47.3777027,10.8592 L50.1678378,10.8592 C50.1054054,9.20333333 49.6639189,8.17666667 48.8091892,8.17666667 L48.8091892,8.17666667 Z M37.1640541,17.8068 C36.6304054,17.8068 36.0358108,17.7144 35.4560811,17.5354667 L35.4560811,21.3429333 L31.6759459,21.9604 L31.6759459,5.87693333 L34.9997297,5.87693333 L35.1989189,7.0488 C36.0982432,6.1028 37.057027,5.65106667 38.1540541,5.65106667 C39.3462162,5.65106667 40.2737838,6.072 40.9471622,6.93 C41.7082432,7.89213333 42.0902703,9.39693333 42.0902703,11.3813333 C42.0902703,13.6224 41.5714865,15.3252 40.5487838,16.4222667 C39.4814865,17.5662667 38.1094595,17.8068 37.1640541,17.8068 L37.1640541,17.8068 Z M36.8905405,8.49493333 C36.675,8.49493333 36.0982432,8.56973333 35.4560811,9.2312 L35.4560811,14.7972 C35.7608108,14.9482667 36.0982432,15.0245333 36.4772973,15.0245333 C37.0258108,15.0245333 37.4985135,14.7224 37.8032432,14.1504 C38.1540541,13.5505333 38.3235135,12.6617333 38.3235135,11.5177333 C38.3235135,9.5172 37.8493243,8.49493333 36.8905405,8.49493333 L36.8905405,8.49493333 Z M28.0177027,4.30613333 C26.9028378,4.30613333 26.0198649,3.4188 26.0198649,2.3364 C26.0198649,1.2364 26.9028378,0.3652 28.0177027,0.3652 C29.1162162,0.3652 29.9991892,1.2364 29.9991892,2.3364 C29.9991892,3.4188 29.1162162,4.30613333 28.0177027,4.30613333 L28.0177027,4.30613333 Z M22.1431081,9.9836 L22.1431081,17.5809333 L18.36,17.5809333 L18.36,5.87693333 L21.6704054,5.87693333 L21.8978378,7.26146667 C22.2337838,6.26706667 22.9012162,5.71413333 23.9685135,5.71413333 C24.1974324,5.71413333 24.4263514,5.74493333 24.6864865,5.8036 L24.6864865,9.25026667 C24.4263514,9.20626667 24.2122973,9.20626667 24.0131081,9.20626667 C23.1004054,9.20626667 22.6158108,9.4116 22.1431081,9.9836 L22.1431081,9.9836 Z M14.7597297,8.646 L14.7597297,13.5329333 C14.7597297,14.3909333 15.0793243,14.7678667 15.827027,14.7678667 C16.1778378,14.7678667 16.6951351,14.6608 16.9240541,14.6021333 L16.9240541,17.5354667 C16.5137838,17.6425333 15.9177027,17.8068 14.9440541,17.8068 C13.6760811,17.8068 12.7767568,17.5662667 12.1524324,17.0705333 C11.4047297,16.4677333 11.0390541,15.4894667 11.0390541,14.0756 L11.0390541,8.646 L9.33554054,8.646 L9.90189189,6.0588 L11.045,5.87693333 L11.5117568,3.04186667 L14.7597297,2.5168 L14.7597297,5.87693333 L17.1752703,5.87693333 L16.7174324,8.646 L14.7597297,8.646 L14.7597297,8.646 Z M5.65351351,10.2842667 C7.74202703,11.022 9.03824324,11.8946667 9.03824324,13.9861333 C9.03824324,15.2504 8.59675676,16.2272 7.74202703,16.8886667 C6.98094595,17.4914667 5.85121622,17.8068 4.49405405,17.8068 C2.78608108,17.8068 1.13905405,17.2964 0.256081081,16.7992 L0.712432432,13.9861333 C1.75,14.586 3.33459459,15.0538667 4.29635135,15.0538667 C5.07378378,15.0538667 5.50040541,14.7678667 5.50040541,14.2706667 C5.50040541,13.7588 5.05891892,13.4273333 3.73297297,12.9609333 C1.67418919,12.2246667 0.409189189,11.3534667 0.409189189,9.30746667 C0.409189189,8.17666667 0.819459459,7.24533333 1.61175676,6.6 C2.37581081,5.98253333 3.44162162,5.65106667 4.72297297,5.65106667 C6.53648649,5.65106667 7.56959459,6.14826667 8.21027027,6.44893333 L7.75391892,9.2312 C6.94527027,8.84106667 6.05040541,8.40253333 4.9072973,8.40253333 C4.28148649,8.40253333 3.93067568,8.646 3.93067568,9.06546667 C3.93067568,9.5612 4.54013514,9.87653333 5.65351351,10.2842667 L5.65351351,10.2842667 Z M26.1105405,5.87693333 L29.907027,5.87693333 L29.907027,17.5809333 L26.1105405,17.5809333 L26.1105405,5.87693333 Z" id="Fill-3" sketch:type="MSShapeGroup"></path>
            </g>
        </g>
    </g>
</svg>